<svg width="407" height="250" viewBox="0 0 407 250" fill="none" xmlns="http://www.w3.org/2000/svg">
<path d="M257.803 50.1792V149.676H307.551C314.369 149.676 320.783 148.405 326.792 145.863C332.801 143.205 338.059 139.623 342.566 135.116C347.073 130.609 350.597 125.351 353.14 119.342C355.798 113.217 357.126 106.746 357.126 99.9277C357.126 93.1097 355.798 86.6961 353.14 80.687C350.597 74.5623 347.073 69.2466 342.566 64.7397C338.059 60.2329 332.801 56.7083 326.792 54.166C320.783 51.5081 314.369 50.1792 307.551 50.1792H257.803ZM257.803 249H208.054V0.430664H307.551C316.681 0.430664 325.463 1.64404 333.899 4.0708C342.335 6.382 350.193 9.73324 357.473 14.1245C364.869 18.4002 371.571 23.6004 377.581 29.7251C383.705 35.7342 388.905 42.4367 393.181 49.8325C397.572 57.2284 400.924 65.1442 403.235 73.5801C405.662 82.016 406.875 90.7985 406.875 99.9277C406.875 108.479 405.777 116.799 403.582 124.889C401.501 132.978 398.439 140.663 394.395 147.943C390.465 155.223 385.612 161.926 379.834 168.05C374.056 174.175 367.585 179.491 360.42 183.998L387.981 249H335.112L313.445 198.905L257.803 199.251V249Z" fill="black"/>
<path fill-rule="evenodd" clip-rule="evenodd" d="M250.164 125.004C250.164 157.815 237.053 189.283 213.716 212.484C190.378 235.685 158.726 248.719 125.722 248.719C92.7186 248.719 61.0665 235.685 37.7292 212.484C14.392 189.283 1.28125 157.815 1.28125 125.004C1.28125 92.1922 14.392 60.7246 37.7292 37.5235C61.0665 14.3223 92.7186 1.28799 125.722 1.28799C158.726 1.28799 190.378 14.3223 213.716 37.5235C237.053 60.7246 250.164 92.1922 250.164 125.004V125.004Z" fill="url(#paint0_radial)" stroke="black"/>
<g opacity="0.03">
<path fill-rule="evenodd" clip-rule="evenodd" d="M125.41 125.317C125.571 125.414 125.358 125.58 125.248 125.582C124.95 125.588 124.817 125.24 124.876 124.994C124.983 124.556 125.498 124.382 125.897 124.521C126.481 124.724 126.701 125.418 126.478 125.962C126.18 126.685 125.293 126.951 124.6 126.643C123.727 126.257 123.413 125.184 123.809 124.35C124.288 123.339 125.56 122.98 126.545 123.459C127.707 124.025 128.115 125.481 127.545 126.606C126.887 127.905 125.228 128.358 123.951 127.705C122.499 126.962 121.996 125.12 122.741 123.705C123.577 122.117 125.625 121.57 127.194 122.398C128.936 123.318 129.534 125.547 128.613 127.251C127.599 129.127 125.162 129.769 123.302 128.766C121.27 127.67 120.577 125.054 121.674 123.06C122.865 120.895 125.691 120.158 127.842 121.336C130.165 122.608 130.954 125.612 129.68 127.896C128.312 130.349 125.096 131.181 122.654 129.827C120.04 128.379 119.157 124.988 120.606 122.415C122.151 119.673 125.758 118.747 128.491 120.275C131.394 121.899 132.374 125.679 130.748 128.541C129.026 131.572 125.029 132.593 122.005 130.889C118.81 129.089 117.736 124.921 119.538 121.771C121.437 118.45 125.824 117.335 129.139 119.214C132.624 121.19 133.794 125.746 131.815 129.186C129.739 132.795 124.962 134.005 121.356 131.951C117.581 129.799 116.316 124.856 118.471 121.126C120.723 117.228 125.891 115.923 129.788 118.153C133.854 120.481 135.215 125.812 132.883 129.831C130.454 134.018 124.895 135.418 120.708 133.012C116.351 130.509 114.895 124.789 117.403 120.482C120.01 116.005 125.958 114.511 130.437 117.092C135.084 119.771 136.636 125.879 133.951 130.476C131.168 135.241 124.829 136.83 120.06 134.073C115.121 131.219 113.475 124.722 116.336 119.836C119.296 114.782 126.025 113.098 131.086 116.03C136.315 119.061 138.056 125.945 135.019 131.12C131.882 136.463 124.762 138.243 119.411 135.134C113.891 131.928 112.054 124.656 115.269 119.191C118.582 113.559 126.093 111.685 131.735 114.969C137.545 118.35 139.478 126.011 136.087 131.765C132.597 137.686 124.696 139.654 118.763 136.196C112.661 132.638 110.634 124.589 114.201 118.546C117.868 112.336 126.16 110.272 132.383 113.907C138.775 117.64 140.898 126.078 137.154 132.409C133.311 138.909 124.629 141.067 118.114 137.257C111.432 133.348 109.213 124.522 113.134 117.902C117.154 111.113 126.227 108.861 133.031 112.846C140.005 116.93 142.319 126.145 138.221 133.054C134.025 140.132 124.561 142.48 117.465 138.318C110.201 134.058 107.792 124.456 112.066 117.257C116.439 109.891 126.293 107.448 133.68 111.785C141.235 116.221 143.739 126.211 139.289 133.7C134.738 141.355 124.494 143.893 116.816 139.38C108.97 134.769 106.371 124.39 110.998 116.613C115.724 108.668 126.36 106.036 134.328 110.724C142.465 115.511 145.159 126.279 140.356 134.345C135.452 142.578 124.427 145.305 116.168 140.442C107.74 135.479 104.95 124.323 109.93 115.968C115.01 107.445 126.426 104.623 134.976 109.663C143.694 114.801 146.58 126.345 141.423 134.989C136.166 143.801 124.36 146.717 115.519 141.502C106.511 136.188 103.529 124.256 108.862 115.323C114.296 106.222 126.494 103.21 135.625 108.601C144.924 114.09 148.001 126.411 142.491 135.633C136.881 145.023 124.293 148.129 114.871 142.563C105.28 136.898 102.108 124.189 107.795 114.677C113.582 104.998 126.561 101.797 136.274 107.539C146.155 113.38 149.423 126.477 143.559 136.278C137.595 146.245 124.226 149.541 114.223 143.624C104.051 137.607 100.688 124.122 106.728 114.032C112.869 103.775 126.629 100.385 136.923 106.477C147.385 112.669 150.844 126.543 144.627 136.922C138.31 147.468 124.159 150.953 113.574 144.685C102.821 138.317 99.2671 124.055 105.661 113.387C112.154 102.552 126.695 98.9719 137.571 105.416C148.616 111.959 152.264 126.61 145.694 137.567C139.024 148.691 124.092 152.367 112.925 145.747C101.59 139.028 97.8457 123.989 104.592 112.743C111.439 101.33 126.762 97.5598 138.219 104.355C149.845 111.25 153.684 126.677 146.761 138.212C139.737 149.915 124.024 153.779 112.276 146.809C100.36 139.739 96.4242 123.923 103.524 112.099C110.724 100.107 126.828 96.1478 138.867 103.294C151.074 110.54 155.105 126.744 147.828 138.858C140.451 151.139 123.957 155.192 111.627 147.87C99.1293 140.449 95.0033 123.857 102.457 111.454C110.01 98.8847 126.895 94.7352 139.516 102.233C152.304 109.83 156.526 126.811 148.896 139.503C141.166 152.361 123.89 156.605 110.979 148.932C97.8991 141.159 93.5824 123.79 101.389 110.809C109.296 97.6616 126.962 93.3226 140.164 101.171C153.535 109.12 157.946 126.877 149.963 140.147C141.88 153.583 123.823 158.017 110.33 149.993C96.6689 141.868 92.1621 123.723 100.322 110.164C108.582 96.438 127.03 91.9094 140.814 100.109C154.765 108.409 159.368 126.943 151.032 140.791C142.594 154.806 123.757 159.429 109.682 151.054C95.4393 142.578 90.7417 123.656 99.2548 109.518C107.868 95.2144 127.097 90.4968 141.462 99.0474C155.995 107.699 160.789 127.009 152.099 141.435C143.309 156.028 123.69 160.841 109.033 152.114C94.2096 143.288 89.3208 123.589 98.1871 108.873C107.154 93.9908 127.164 89.0836 142.111 97.986C157.225 106.988 162.21 127.076 153.166 142.08C144.023 157.251 123.622 162.254 108.384 153.176C92.9788 143.998 87.8994 123.522 97.1189 108.228C106.439 92.7678 127.23 87.671 142.759 96.9246C158.455 106.278 163.63 127.143 154.233 142.725C144.736 158.474 123.555 163.666 107.735 154.237C91.7481 144.708 86.4779 123.456 96.0507 107.584C105.724 91.5459 127.297 86.2589 143.407 95.8637C159.685 105.569 165.05 127.21 155.3 143.37C145.45 159.698 123.487 165.08 107.087 155.299C90.5179 145.418 85.057 123.389 94.9831 106.939C105.01 90.3229 127.364 84.8463 144.055 94.8023C160.915 104.858 166.471 127.276 156.368 144.015C146.165 160.921 123.42 166.492 106.438 156.36C89.2882 146.128 83.6361 123.322 93.9154 106.294C104.295 89.0998 127.431 83.4337 144.704 93.7409C162.144 104.148 167.892 127.343 157.436 144.66C146.879 162.144 123.353 167.905 105.789 157.421C88.058 146.839 82.2152 123.256 92.8483 105.65C103.582 87.8768 127.498 82.0211 145.353 92.6794C163.375 103.438 169.313 127.409 158.504 145.304C147.594 163.366 123.287 169.316 105.141 158.482C86.8284 147.548 80.7949 123.189 91.7813 105.004C102.868 86.6532 127.566 80.6079 146.002 91.6175C164.605 102.727 170.734 127.475 159.572 145.948C148.308 164.589 123.22 170.728 104.493 159.543C85.5981 148.257 79.3745 123.122 90.7136 104.359C102.154 85.4302 127.633 79.1947 146.65 90.5561C165.836 102.017 172.155 127.542 160.639 146.591C149.022 165.809 123.152 172.139 103.842 160.602C84.3657 148.965 77.9508 123.053 89.6437 103.712C101.437 84.2049 127.698 77.7799 147.295 89.4924C167.063 101.305 173.572 127.606 161.703 147.238C149.733 167.035 123.082 173.554 103.191 161.667C83.1327 149.678 76.5277 122.989 88.5733 103.07C100.72 82.9852 127.762 76.3706 147.941 88.4343C168.289 100.598 174.99 127.676 162.767 147.886C150.444 168.26 123.012 174.97 102.539 162.73C81.9002 150.391 75.104 122.924 87.5028 102.428C100.003 81.765 127.826 74.9614 148.586 87.3757C169.516 99.8907 176.407 127.745 163.831 148.533C151.155 169.486 122.941 176.384 101.888 163.794C80.6672 151.103 73.6803 122.861 86.4324 101.787C99.2857 80.5447 127.89 73.5516 149.231 86.3171C170.742 99.1833 177.825 127.815 164.896 149.18C151.866 170.71 122.871 177.799 101.236 164.858C79.4342 151.816 72.2565 122.796 85.3625 101.145C98.5691 79.3245 127.955 72.1417 149.882 85.2585C171.975 98.4759 179.249 127.884 165.966 149.827C152.583 171.936 122.807 179.214 100.591 165.921C78.2073 152.528 70.839 122.731 84.2982 100.503C97.858 78.1048 128.025 70.7319 150.534 84.1998C173.208 97.7684 180.672 127.953 167.037 150.474C153.3 173.161 122.743 180.629 99.9461 166.985C76.9805 153.241 69.4215 122.667 83.2339 99.8605C97.147 76.8846 128.095 69.3221 151.185 83.1418C174.441 97.0616 182.096 128.023 168.107 151.122C154.017 174.387 122.678 182.044 99.3003 168.049C75.7537 153.954 68.0034 122.603 82.1691 99.2135C96.4355 75.6593 128.165 67.9072 151.836 82.0781C175.673 96.3491 183.519 128.088 169.176 151.764C154.733 175.607 122.614 183.454 98.6546 169.108C74.5263 154.661 66.5853 122.534 81.1043 98.5665C95.7239 74.434 128.235 66.4924 152.487 81.0145C176.906 95.6372 184.942 128.152 170.246 152.406C155.45 176.827 122.549 184.863 98.0088 170.166C73.2989 155.367 65.1672 122.464 80.0394 97.9189C95.0123 73.2087 128.304 65.077 153.138 79.9503C178.138 94.9242 186.365 128.216 171.316 153.047C156.166 178.047 122.484 186.273 97.3574 171.224C72.0659 156.074 63.7435 122.394 78.969 97.2713C94.2957 71.9829 128.369 63.6616 153.783 78.886C179.365 94.2112 187.783 128.279 172.38 153.689C156.877 179.266 122.414 187.682 96.706 172.282C70.8328 156.781 62.3198 122.324 77.8991 96.6237C93.579 70.7571 128.433 62.2462 154.429 77.8218C180.593 93.4982 189.201 128.343 173.445 154.33C157.589 180.486 122.344 189.091 96.0552 173.34C69.6004 157.488 60.8972 122.254 76.8292 95.9761C92.8624 69.5313 128.498 60.8308 155.074 76.7576C181.819 92.7851 190.619 128.407 174.51 154.977C158.3 181.711 122.274 190.506 95.4044 174.404C68.3685 158.2 59.4741 122.19 75.7593 95.3341C92.1458 68.311 128.563 59.4209 155.72 75.6996C183.047 92.0783 192.037 128.477 175.574 155.625C159.011 182.937 122.203 191.921 94.753 175.468C67.1355 158.914 58.0504 122.126 74.6888 94.6927C91.4286 67.0913 128.627 58.0117 156.365 74.6415C184.274 91.3714 193.454 128.547 176.639 156.272C159.722 184.163 122.133 193.337 94.1016 176.532C65.9024 159.627 56.6266 122.062 73.6184 94.0512C90.7114 65.8717 128.691 56.603 157.016 73.5834C185.506 90.6645 194.877 128.617 177.709 156.92C160.439 185.388 122.068 194.752 93.4558 177.596C64.675 160.339 55.2086 121.998 72.5535 93.4092C89.9998 64.652 128.761 55.1932 157.667 72.5248C186.739 89.9571 196.301 128.688 178.778 157.567C161.156 186.613 122.004 196.167 92.8101 178.659C63.4476 161.051 53.7905 121.931 71.4887 92.7672C89.2882 63.4317 128.831 53.7833 158.318 71.4662C187.971 89.2497 197.724 128.754 179.848 158.214C161.872 187.839 121.938 197.582 92.1643 179.723C62.2208 161.764 52.3724 121.871 70.4244 92.1197C88.5772 62.2059 128.903 52.3679 158.969 70.402C189.203 88.5367 199.147 128.819 180.919 158.855C162.589 189.058 121.878 198.991 91.5191 180.781C60.994 162.471 50.9549 121.799 69.3602 91.4721C87.8662 60.9801 128.969 50.9525 159.62 69.3378C190.436 87.8237 200.571 128.885 181.989 159.497C163.306 190.278 121.812 200.401 90.8739 181.839C59.7671 163.178 49.5373 121.728 68.2959 90.8245C87.1557 59.7542 129.041 49.5371 160.272 68.2741C191.669 87.1118 201.994 128.945 183.059 160.139C164.023 191.498 121.746 201.81 90.2225 182.898C58.5341 163.884 48.1136 121.662 67.2254 90.1775C86.4385 58.5295 129.107 48.1223 160.917 67.2104C192.896 86.3993 203.412 129.011 184.123 160.781C164.734 192.718 121.674 203.22 89.5712 183.956C57.3011 164.592 46.6899 121.591 66.155 89.5304C85.7213 57.3043 129.167 46.7074 161.562 66.1468C194.123 85.6868 204.829 129.077 185.188 161.423C165.445 193.938 121.607 204.63 88.9198 185.014C56.0703 165.307 45.2684 121.531 65.0862 88.8884C85.0047 56.0857 129.235 45.2993 162.209 65.0876C195.351 84.9789 206.249 129.147 186.254 162.069C166.157 195.163 121.537 206.044 88.2701 186.078C54.8429 166.018 43.8504 121.464 64.0203 88.2459C84.2931 54.8632 129.305 43.8872 162.864 64.0312C196.588 84.2737 207.676 129.215 187.328 162.724C166.879 196.396 121.475 207.466 87.6288 187.149C53.6133 166.726 42.4295 121.395 62.9571 87.6005C83.5787 53.6379 129.373 42.4724 163.511 62.9665C197.817 83.5601 209.095 129.28 188.394 163.365C167.591 197.615 121.41 208.875 86.9791 188.207C52.3859 167.437 41.0114 121.328 61.8912 86.9524C82.8672 52.4155 129.443 41.0603 164.161 61.9045C199.048 82.8493 210.518 129.348 189.463 164.009C168.307 198.837 121.343 210.285 86.3322 189.263C51.1557 168.147 39.5905 121.261 60.8224 86.3093C82.1528 51.193 129.51 39.6477 164.814 60.8419C200.282 82.138 211.942 129.409 190.534 164.652C169.025 200.058 121.278 211.698 85.6876 190.327C49.9277 168.858 38.1718 121.195 59.7559 85.6667C81.4406 49.9705 129.58 38.2356 165.463 59.78C201.513 81.4272 213.364 129.477 191.602 165.295C169.739 201.28 121.21 213.109 85.0401 191.387C48.6969 169.566 36.7504 121.125 58.6866 85.0158C80.7257 48.7424 129.642 36.818 166.109 58.7163C202.74 80.7147 214.782 129.543 192.667 165.937C170.452 202.5 121.144 214.519 84.3899 192.445C47.469 170.277 35.3317 121.059 57.6257 84.3738C80.0135 47.5233 129.717 35.4099 166.758 57.6594C203.971 80.009 216.204 129.61 193.736 166.586C171.167 203.727 121.076 215.935 83.7424 193.51C46.2382 170.984 33.9108 120.989 56.5552 83.7279C79.2986 46.2975 129.783 33.9939 167.409 56.5946C205.203 79.296 217.627 129.675 194.805 167.227C171.883 204.946 121.01 217.344 83.0967 194.568C45.0097 171.695 32.491 120.923 55.4887 83.0853C78.5853 45.0756 129.852 32.5824 168.058 55.5337C206.434 78.5863 219.049 129.744 195.874 167.872C172.598 206.168 120.947 218.757 82.4436 195.629C43.7789 172.41 31.0696 120.86 54.4205 82.4411C77.876 43.857 129.915 31.1742 168.706 54.4768C207.665 77.8834 220.468 129.816 196.944 168.526C173.313 207.398 120.881 220.177 81.7978 196.7C42.5498 173.123 29.6498 120.796 53.3545 81.8007C77.1627 42.6368 129.98 29.7644 169.355 53.4187C208.894 77.1759 221.888 129.882 198.004 169.168C174.024 208.622 120.811 221.59 81.1481 197.762C41.3168 173.826 28.2261 120.733 52.2841 81.1565C76.4455 41.4126 130.045 28.3507 170 52.3562C210.121 76.4623 223.307 129.949 199.073 169.817C174.737 209.848 120.743 223.005 80.4956 198.824C40.0866 174.537 26.8052 120.666 51.2164 80.5078C75.7312 40.1896 130.114 26.9381 170.649 51.2948C211.351 75.7521 224.728 130.018 200.14 170.461C175.451 211.071 120.674 224.417 79.8471 199.884C38.8553 175.25 25.3826 120.602 50.1471 79.8681C75.0151 38.9699 130.181 25.5288 171.3 50.2367C212.584 75.0453 226.152 130.084 201.211 171.109C176.168 212.296 120.609 225.835 79.2024 200.949C37.6273 175.963 23.9639 120.537 49.0817 79.2272C74.3029 37.7491 130.252 24.1184 171.951 49.1775C213.816 74.3373 227.574 130.154 202.28 171.755C176.884 213.521 120.542 227.246 78.5561 202.012C36.3977 176.673 22.5436 120.47 48.0146 78.5785C73.5891 36.5266 130.321 22.7058 172.599 48.1161C215.046 73.6293 228.997 130.222 203.346 172.399C177.6 214.744 120.477 228.658 77.9064 203.073C35.1703 177.382 21.1266 120.402 46.9498 77.9342C72.8775 35.3025 130.387 21.2899 173.244 47.0536C216.276 72.9179 230.418 130.289 204.413 173.042C178.313 215.963 120.408 230.067 77.2578 204.13C33.9384 178.092 19.7018 120.335 45.881 77.2911C72.1615 34.0794 130.454 19.8806 173.897 45.9927C217.503 72.2077 231.835 130.353 205.482 173.687C179.027 217.19 120.34 231.484 76.6109 205.194C32.7082 178.804 18.2843 120.27 44.8134 76.6497C71.4471 32.8581 130.523 18.4674 174.545 44.933C218.736 71.4992 233.26 130.417 206.552 174.339C179.743 218.417 120.274 232.901 75.9595 206.26C31.4796 179.517 16.8623 120.205 43.7469 76.0038C70.7338 31.6378 130.593 17.061 175.194 43.8744C219.97 70.7918 234.68 130.488 207.623 174.98C180.459 219.635 120.214 234.309 75.3149 207.32C30.2517 180.226 15.4414 120.137 42.6815 75.359C70.0217 30.4137 130.658 15.6444 175.844 42.8113C221.2 70.0799 236.1 130.554 208.684 175.623C181.171 220.859 120.145 235.723 74.6658 208.382C29.0192 180.935 14.0216 120.069 41.6116 74.7153C69.305 29.1901 130.719 14.229 176.49 41.7493C222.425 69.3691 237.517 130.622 209.751 176.266C181.885 222.084 120.076 237.133 74.0121 209.44C27.7879 181.646 12.5973 120.002 40.5428 74.0672C68.5895 27.9676 130.786 12.8203 177.137 40.6884C223.657 68.6594 238.94 130.691 210.82 176.917C182.599 223.305 120.009 238.549 73.3652 210.504C26.5577 182.358 11.1798 119.942 39.4752 73.4257C67.8751 26.7463 130.855 11.4072 177.791 39.6287C224.89 67.9509 240.364 130.761 211.89 177.557C183.315 224.527 119.942 239.962 72.7195 211.564C25.3286 183.066 9.75776 119.873 38.4092 72.7798C67.1619 25.5204 130.92 9.99509 178.44 38.565C226.119 67.2378 241.785 130.821 212.956 178.199C184.032 225.75 119.877 241.37 72.0754 212.625C24.1018 183.775 8.34305 119.804 37.3444 72.13C66.4503 24.2963 130.991 8.57912 179.086 37.5025C227.349 66.5265 243.206 130.888 214.023 178.848C184.744 226.97 119.808 242.785 71.4212 213.682C22.8699 184.485 6.91822 119.737 36.275 71.4869C65.7342 23.0732 131.058 7.16428 179.732 36.4411C228.58 65.8163 244.623 130.956 215.091 179.492C185.458 228.195 119.74 244.195 70.7738 214.746C21.6391 185.196 5.4945 119.671 35.2068 70.8449C65.0193 21.8519 131.126 5.75614 180.385 35.3808C229.807 65.1072 246.047 131.026 216.161 180.137C186.173 229.422 119.673 245.612 70.1274 215.811C20.4094 185.909 4.07754 119.606 34.1398 70.204C64.3055 20.6311 131.195 4.34352 181.034 34.3216C231.041 64.3992 247.472 131.091 217.231 180.784C186.889 230.639 119.607 247.025 69.4766 216.871C19.1809 186.617 2.65608 119.537 33.0738 69.5531C63.5928 19.4058 131.266 2.93202 181.678 33.2579C232.27 63.6867 248.886 131.151 218.291 181.426C187.601 231.863 119.537 248.433 68.8269 217.932C17.9485 187.326 1.23574 119.469 32.0033 68.9088C62.8756 18.1817 131.326 1.51605 182.328 32.1954C233.498 62.9748 250.308 131.218 219.362 182.069C188.314 233.085 119.471 249.848 68.1817 218.99C16.7143 188.037 -0.191346 119.403 30.9323 68.2668C62.1572 16.9597 131.391 0.107914 182.973 31.1351C234.724 62.2663 251.723 131.288 220.425 182.72C189.026 234.309 119.398 251.259 67.5236 220.054C15.4841 188.748 -1.6145 119.337 29.8647 67.6192C61.4429 15.7384 131.46 -1.30582 183.621 30.0754C235.957 61.5572 253.147 131.352 221.495 183.36C189.741 235.531 119.337 252.671 66.8778 221.114C14.255 189.456 -3.0309 119.267 28.7982 66.9733C60.7296 14.5126 131.524 -2.72347 184.276 29.0111C237.186 60.8442 254.573 131.417 222.566 184.002C190.458 236.754 119.272 254.084 66.2332 222.175C13.0271 190.164 -4.45179 119.198 27.7328 66.3285C60.0175 13.2878 131.589 -4.1344 184.921 27.948C238.415 60.1323 255.988 131.484 223.627 184.644C191.164 237.972 119.202 255.493 65.584 223.237C11.7946 190.874 -5.87719 119.13 26.6629 65.6793C59.3008 12.0642 131.655 -5.54981 185.566 26.8861C239.644 59.4221 257.41 131.552 224.694 185.293C191.878 239.198 119.134 256.908 64.9304 224.294C10.5638 191.585 -7.29584 119.07 25.5941 65.0367C58.5853 10.8418 131.723 -6.95851 186.213 25.8252C240.872 58.7124 258.828 131.62 225.76 185.938C192.595 240.424 119.069 258.319 64.2863 225.358C9.33645 192.297 -8.71618 119.004 24.5293 64.3953C57.8737 9.62097 131.794 -8.37169 186.87 24.7655C242.108 58.0033 260.255 131.69 226.836 186.584C193.31 241.652 119.003 259.737 63.6406 226.424C8.10736 193.01 -10.1326 118.94 23.4633 63.755C57.1616 8.40073 131.859 -9.78374 187.514 23.7074C243.337 57.2959 261.675 131.756 227.896 187.232C194.022 242.87 118.932 261.145 62.9853 227.485C6.87434 193.719 -11.5585 118.872 22.3929 63.1051C56.4444 7.17658 131.925 -11.1941 188.159 22.6449C244.567 56.5856 263.091 131.823 228.963 187.875C194.735 244.094 118.863 262.56 62.3367 228.542C5.64132 194.429 -12.9778 118.804 21.3235 62.462C55.7283 5.95187 131.992 -12.609 188.811 21.5835C245.793 55.8754 264.513 131.892 230.032 188.519C195.448 245.32 118.795 263.976 61.6892 229.606C4.41448 195.14 -14.4015 118.738 20.2553 61.82C55.0134 4.73386 132.06 -14.0171 189.458 20.5232C247.026 55.1663 265.931 131.961 231.101 189.17" fill="url(#paint1_linear)"/>
<path d="M125.41 125.317C125.571 125.414 125.358 125.58 125.248 125.582C124.95 125.588 124.817 125.24 124.876 124.994C124.983 124.556 125.498 124.382 125.897 124.521C126.481 124.724 126.701 125.418 126.478 125.962C126.18 126.685 125.293 126.951 124.6 126.643C123.727 126.257 123.413 125.184 123.809 124.35C124.288 123.339 125.56 122.98 126.545 123.459C127.707 124.025 128.115 125.481 127.545 126.606C126.887 127.905 125.228 128.358 123.951 127.705C122.499 126.962 121.996 125.12 122.741 123.705C123.577 122.117 125.625 121.57 127.194 122.398C128.936 123.318 129.534 125.547 128.613 127.251C127.599 129.127 125.162 129.769 123.302 128.766C121.27 127.67 120.577 125.054 121.674 123.06C122.865 120.895 125.691 120.158 127.842 121.336C130.165 122.608 130.954 125.612 129.68 127.896C128.312 130.349 125.096 131.181 122.654 129.827C120.04 128.379 119.157 124.988 120.606 122.415C122.151 119.673 125.758 118.747 128.491 120.275C131.394 121.899 132.374 125.679 130.748 128.541C129.026 131.572 125.029 132.593 122.005 130.889C118.81 129.089 117.736 124.921 119.538 121.771C121.437 118.45 125.824 117.335 129.139 119.214C132.624 121.19 133.794 125.746 131.815 129.186C129.739 132.795 124.962 134.005 121.356 131.951C117.581 129.799 116.316 124.856 118.471 121.126C120.723 117.228 125.891 115.923 129.788 118.153C133.854 120.481 135.215 125.812 132.883 129.831C130.454 134.018 124.895 135.418 120.708 133.012C116.351 130.509 114.895 124.789 117.403 120.482C120.01 116.005 125.958 114.511 130.437 117.092C135.084 119.771 136.636 125.879 133.951 130.476C131.168 135.241 124.829 136.83 120.06 134.073C115.121 131.219 113.475 124.722 116.336 119.836C119.296 114.782 126.025 113.098 131.086 116.03C136.315 119.061 138.056 125.945 135.019 131.12C131.882 136.463 124.762 138.243 119.411 135.134C113.891 131.928 112.054 124.656 115.269 119.191C118.582 113.559 126.093 111.685 131.735 114.969C137.545 118.35 139.478 126.011 136.087 131.765C132.597 137.686 124.696 139.654 118.763 136.196C112.661 132.638 110.634 124.589 114.201 118.546C117.868 112.336 126.16 110.272 132.383 113.907C138.775 117.64 140.898 126.078 137.154 132.409C133.311 138.909 124.629 141.067 118.114 137.257C111.432 133.348 109.213 124.522 113.134 117.902C117.154 111.113 126.227 108.861 133.031 112.846C140.005 116.93 142.319 126.145 138.221 133.054C134.025 140.132 124.561 142.48 117.465 138.318C110.201 134.058 107.792 124.456 112.066 117.257C116.439 109.891 126.293 107.448 133.68 111.785C141.235 116.221 143.739 126.211 139.289 133.7C134.738 141.355 124.494 143.893 116.816 139.38C108.97 134.769 106.371 124.39 110.998 116.613C115.724 108.668 126.36 106.036 134.328 110.724C142.465 115.511 145.159 126.279 140.356 134.345C135.452 142.578 124.427 145.305 116.168 140.442C107.74 135.479 104.95 124.323 109.93 115.968C115.01 107.445 126.426 104.623 134.976 109.663C143.694 114.801 146.58 126.345 141.423 134.989C136.166 143.801 124.36 146.717 115.519 141.502C106.511 136.188 103.529 124.256 108.862 115.323C114.296 106.222 126.494 103.21 135.625 108.601C144.924 114.09 148.001 126.411 142.491 135.633C136.881 145.023 124.293 148.129 114.871 142.563C105.28 136.898 102.108 124.189 107.795 114.677C113.582 104.998 126.561 101.797 136.274 107.539C146.155 113.38 149.423 126.477 143.559 136.278C137.595 146.245 124.226 149.541 114.223 143.624C104.051 137.607 100.688 124.122 106.728 114.032C112.869 103.775 126.629 100.385 136.923 106.477C147.385 112.669 150.844 126.543 144.627 136.922C138.31 147.468 124.159 150.953 113.574 144.685C102.821 138.317 99.2671 124.055 105.661 113.387C112.154 102.552 126.695 98.9719 137.571 105.416C148.616 111.959 152.264 126.61 145.694 137.567C139.024 148.691 124.092 152.367 112.925 145.747C101.59 139.028 97.8457 123.989 104.592 112.743C111.439 101.33 126.762 97.5598 138.219 104.355C149.845 111.25 153.684 126.677 146.761 138.212C139.737 149.915 124.024 153.779 112.276 146.809C100.36 139.739 96.4242 123.923 103.524 112.099C110.724 100.107 126.828 96.1478 138.867 103.294C151.074 110.54 155.105 126.744 147.828 138.858C140.451 151.139 123.957 155.192 111.627 147.87C99.1293 140.449 95.0033 123.857 102.457 111.454C110.01 98.8847 126.895 94.7352 139.516 102.233C152.304 109.83 156.526 126.811 148.896 139.503C141.166 152.361 123.89 156.605 110.979 148.932C97.8991 141.159 93.5824 123.79 101.389 110.809C109.296 97.6616 126.962 93.3226 140.164 101.171C153.535 109.12 157.946 126.877 149.963 140.147C141.88 153.583 123.823 158.017 110.33 149.993C96.6689 141.868 92.1621 123.723 100.322 110.164C108.582 96.438 127.03 91.9094 140.814 100.109C154.765 108.409 159.368 126.943 151.032 140.791C142.594 154.806 123.757 159.429 109.682 151.054C95.4393 142.578 90.7417 123.656 99.2548 109.518C107.868 95.2144 127.097 90.4968 141.462 99.0474C155.995 107.699 160.789 127.009 152.099 141.435C143.309 156.028 123.69 160.841 109.033 152.114C94.2096 143.288 89.3208 123.589 98.1871 108.873C107.154 93.9908 127.164 89.0836 142.111 97.986C157.225 106.988 162.21 127.076 153.166 142.08C144.023 157.251 123.622 162.254 108.384 153.176C92.9788 143.998 87.8994 123.522 97.1189 108.228C106.439 92.7678 127.23 87.671 142.759 96.9246C158.455 106.278 163.63 127.143 154.233 142.725C144.736 158.474 123.555 163.666 107.735 154.237C91.7481 144.708 86.4779 123.456 96.0507 107.584C105.724 91.5459 127.297 86.2589 143.407 95.8637C159.685 105.569 165.05 127.21 155.3 143.37C145.45 159.698 123.487 165.08 107.087 155.299C90.5179 145.418 85.057 123.389 94.9831 106.939C105.01 90.3229 127.364 84.8463 144.055 94.8023C160.915 104.858 166.471 127.276 156.368 144.015C146.165 160.921 123.42 166.492 106.438 156.36C89.2882 146.128 83.6361 123.322 93.9154 106.294C104.295 89.0998 127.431 83.4337 144.704 93.7409C162.144 104.148 167.892 127.343 157.436 144.66C146.879 162.144 123.353 167.905 105.789 157.421C88.058 146.839 82.2152 123.256 92.8483 105.65C103.582 87.8768 127.498 82.0211 145.353 92.6794C163.375 103.438 169.313 127.409 158.504 145.304C147.594 163.366 123.287 169.316 105.141 158.482C86.8284 147.548 80.7949 123.189 91.7813 105.004C102.868 86.6532 127.566 80.6079 146.002 91.6175C164.605 102.727 170.734 127.475 159.572 145.948C148.308 164.589 123.22 170.728 104.493 159.543C85.5981 148.257 79.3745 123.122 90.7136 104.359C102.154 85.4302 127.633 79.1947 146.65 90.5561C165.836 102.017 172.155 127.542 160.639 146.591C149.022 165.809 123.152 172.139 103.842 160.602C84.3657 148.965 77.9508 123.053 89.6437 103.712C101.437 84.2049 127.698 77.7799 147.295 89.4924C167.063 101.305 173.572 127.606 161.703 147.238C149.733 167.035 123.082 173.554 103.191 161.667C83.1327 149.678 76.5277 122.989 88.5733 103.07C100.72 82.9852 127.762 76.3706 147.941 88.4343C168.289 100.598 174.99 127.676 162.767 147.886C150.444 168.26 123.012 174.97 102.539 162.73C81.9002 150.391 75.104 122.924 87.5028 102.428C100.003 81.765 127.826 74.9614 148.586 87.3757C169.516 99.8907 176.407 127.745 163.831 148.533C151.155 169.486 122.941 176.384 101.888 163.794C80.6672 151.103 73.6803 122.861 86.4324 101.787C99.2857 80.5447 127.89 73.5516 149.231 86.3171C170.742 99.1833 177.825 127.815 164.896 149.18C151.866 170.71 122.871 177.799 101.236 164.858C79.4342 151.816 72.2565 122.796 85.3625 101.145C98.5691 79.3245 127.955 72.1417 149.882 85.2585C171.975 98.4759 179.249 127.884 165.966 149.827C152.583 171.936 122.807 179.214 100.591 165.921C78.2073 152.528 70.839 122.731 84.2982 100.503C97.858 78.1048 128.025 70.7319 150.534 84.1998C173.208 97.7684 180.672 127.953 167.037 150.474C153.3 173.161 122.743 180.629 99.9461 166.985C76.9805 153.241 69.4215 122.667 83.2339 99.8605C97.147 76.8846 128.095 69.3221 151.185 83.1418C174.441 97.0616 182.096 128.023 168.107 151.122C154.017 174.387 122.678 182.044 99.3003 168.049C75.7537 153.954 68.0034 122.603 82.1691 99.2135C96.4355 75.6593 128.165 67.9072 151.836 82.0781C175.673 96.3491 183.519 128.088 169.176 151.764C154.733 175.607 122.614 183.454 98.6546 169.108C74.5263 154.661 66.5853 122.534 81.1043 98.5665C95.7239 74.434 128.235 66.4924 152.487 81.0145C176.906 95.6372 184.942 128.152 170.246 152.406C155.45 176.827 122.549 184.863 98.0088 170.166C73.2989 155.367 65.1672 122.464 80.0394 97.9189C95.0123 73.2087 128.304 65.077 153.138 79.9503C178.138 94.9242 186.365 128.216 171.316 153.047C156.166 178.047 122.484 186.273 97.3574 171.224C72.0659 156.074 63.7435 122.394 78.969 97.2713C94.2957 71.9829 128.369 63.6616 153.783 78.886C179.365 94.2112 187.783 128.279 172.38 153.689C156.877 179.266 122.414 187.682 96.706 172.282C70.8328 156.781 62.3198 122.324 77.8991 96.6237C93.579 70.7571 128.433 62.2462 154.429 77.8218C180.593 93.4982 189.201 128.343 173.445 154.33C157.589 180.486 122.344 189.091 96.0552 173.34C69.6004 157.488 60.8972 122.254 76.8292 95.9761C92.8624 69.5313 128.498 60.8308 155.074 76.7576C181.819 92.7851 190.619 128.407 174.51 154.977C158.3 181.711 122.274 190.506 95.4044 174.404C68.3685 158.2 59.4741 122.19 75.7593 95.3341C92.1458 68.311 128.563 59.4209 155.72 75.6996C183.047 92.0783 192.037 128.477 175.574 155.625C159.011 182.937 122.203 191.921 94.753 175.468C67.1355 158.914 58.0504 122.126 74.6888 94.6927C91.4286 67.0913 128.627 58.0117 156.365 74.6415C184.274 91.3714 193.454 128.547 176.639 156.272C159.722 184.163 122.133 193.337 94.1016 176.532C65.9024 159.627 56.6266 122.062 73.6184 94.0512C90.7114 65.8717 128.691 56.603 157.016 73.5834C185.506 90.6645 194.877 128.617 177.709 156.92C160.439 185.388 122.068 194.752 93.4558 177.596C64.675 160.339 55.2086 121.998 72.5535 93.4092C89.9998 64.652 128.761 55.1932 157.667 72.5248C186.739 89.9571 196.301 128.688 178.778 157.567C161.156 186.613 122.004 196.167 92.8101 178.659C63.4476 161.051 53.7905 121.931 71.4887 92.7672C89.2882 63.4317 128.831 53.7833 158.318 71.4662C187.971 89.2497 197.724 128.754 179.848 158.214C161.872 187.839 121.938 197.582 92.1643 179.723C62.2208 161.764 52.3724 121.871 70.4244 92.1197C88.5772 62.2059 128.903 52.3679 158.969 70.402C189.203 88.5367 199.147 128.819 180.919 158.855C162.589 189.058 121.878 198.991 91.5191 180.781C60.994 162.471 50.9549 121.799 69.3602 91.4721C87.8662 60.9801 128.969 50.9525 159.62 69.3378C190.436 87.8237 200.571 128.885 181.989 159.497C163.306 190.278 121.812 200.401 90.8739 181.839C59.7671 163.178 49.5373 121.728 68.2959 90.8245C87.1557 59.7542 129.041 49.5371 160.272 68.2741C191.669 87.1118 201.994 128.945 183.059 160.139C164.023 191.498 121.746 201.81 90.2225 182.898C58.5341 163.884 48.1136 121.662 67.2254 90.1775C86.4385 58.5295 129.107 48.1223 160.917 67.2104C192.896 86.3993 203.412 129.011 184.123 160.781C164.734 192.718 121.674 203.22 89.5712 183.956C57.3011 164.592 46.6899 121.591 66.155 89.5304C85.7213 57.3043 129.167 46.7074 161.562 66.1468C194.123 85.6868 204.829 129.077 185.188 161.423C165.445 193.938 121.607 204.63 88.9198 185.014C56.0703 165.307 45.2684 121.531 65.0862 88.8884C85.0047 56.0857 129.235 45.2993 162.209 65.0876C195.351 84.9789 206.249 129.147 186.254 162.069C166.157 195.163 121.537 206.044 88.2701 186.078C54.8429 166.018 43.8504 121.464 64.0203 88.2459C84.2931 54.8632 129.305 43.8872 162.864 64.0312C196.588 84.2737 207.676 129.215 187.328 162.724C166.879 196.396 121.475 207.466 87.6288 187.149C53.6133 166.726 42.4295 121.395 62.9571 87.6005C83.5787 53.6379 129.373 42.4724 163.511 62.9665C197.817 83.5601 209.095 129.28 188.394 163.365C167.591 197.615 121.41 208.875 86.9791 188.207C52.3859 167.437 41.0114 121.328 61.8912 86.9524C82.8672 52.4155 129.443 41.0603 164.161 61.9045C199.048 82.8493 210.518 129.348 189.463 164.009C168.307 198.837 121.343 210.285 86.3322 189.263C51.1557 168.147 39.5905 121.261 60.8224 86.3093C82.1528 51.193 129.51 39.6477 164.814 60.8419C200.282 82.138 211.942 129.409 190.534 164.652C169.025 200.058 121.278 211.698 85.6876 190.327C49.9277 168.858 38.1718 121.195 59.7559 85.6667C81.4406 49.9705 129.58 38.2356 165.463 59.78C201.513 81.4272 213.364 129.477 191.602 165.295C169.739 201.28 121.21 213.109 85.0401 191.387C48.6969 169.566 36.7504 121.125 58.6866 85.0158C80.7257 48.7424 129.642 36.818 166.109 58.7163C202.74 80.7147 214.782 129.543 192.667 165.937C170.452 202.5 121.144 214.519 84.3899 192.445C47.469 170.277 35.3317 121.059 57.6257 84.3738C80.0135 47.5233 129.717 35.4099 166.758 57.6594C203.971 80.009 216.204 129.61 193.736 166.586C171.167 203.727 121.076 215.935 83.7424 193.51C46.2382 170.984 33.9108 120.989 56.5552 83.7279C79.2986 46.2975 129.783 33.9939 167.409 56.5946C205.203 79.296 217.627 129.675 194.805 167.227C171.883 204.946 121.01 217.344 83.0967 194.568C45.0097 171.695 32.491 120.923 55.4887 83.0853C78.5853 45.0756 129.852 32.5824 168.058 55.5337C206.434 78.5863 219.049 129.744 195.874 167.872C172.598 206.168 120.947 218.757 82.4436 195.629C43.7789 172.41 31.0696 120.86 54.4205 82.4411C77.876 43.857 129.915 31.1742 168.706 54.4768C207.665 77.8834 220.468 129.816 196.944 168.526C173.313 207.398 120.881 220.177 81.7978 196.7C42.5498 173.123 29.6498 120.796 53.3545 81.8007C77.1627 42.6368 129.98 29.7644 169.355 53.4187C208.894 77.1759 221.888 129.882 198.004 169.168C174.024 208.622 120.811 221.59 81.1481 197.762C41.3168 173.826 28.2261 120.733 52.2841 81.1565C76.4455 41.4126 130.045 28.3507 170 52.3562C210.121 76.4623 223.307 129.949 199.073 169.817C174.737 209.848 120.743 223.005 80.4956 198.824C40.0866 174.537 26.8052 120.666 51.2164 80.5078C75.7312 40.1896 130.114 26.9381 170.649 51.2948C211.351 75.7521 224.728 130.018 200.14 170.461C175.451 211.071 120.674 224.417 79.8471 199.884C38.8553 175.25 25.3826 120.602 50.1471 79.8681C75.0151 38.9699 130.181 25.5288 171.3 50.2367C212.584 75.0453 226.152 130.084 201.211 171.109C176.168 212.296 120.609 225.835 79.2024 200.949C37.6273 175.963 23.9639 120.537 49.0817 79.2272C74.3029 37.7491 130.252 24.1184 171.951 49.1775C213.816 74.3373 227.574 130.154 202.28 171.755C176.884 213.521 120.542 227.246 78.5561 202.012C36.3977 176.673 22.5436 120.47 48.0146 78.5785C73.5891 36.5266 130.321 22.7058 172.599 48.1161C215.046 73.6293 228.997 130.222 203.346 172.399C177.6 214.744 120.477 228.658 77.9064 203.073C35.1703 177.382 21.1266 120.402 46.9498 77.9342C72.8775 35.3025 130.387 21.2899 173.244 47.0536C216.276 72.9179 230.418 130.289 204.413 173.042C178.313 215.963 120.408 230.067 77.2578 204.13C33.9384 178.092 19.7018 120.335 45.881 77.2911C72.1615 34.0794 130.454 19.8806 173.897 45.9927C217.503 72.2077 231.835 130.353 205.482 173.687C179.027 217.19 120.34 231.484 76.6109 205.194C32.7082 178.804 18.2843 120.27 44.8134 76.6497C71.4471 32.8581 130.523 18.4674 174.545 44.933C218.736 71.4992 233.26 130.417 206.552 174.339C179.743 218.417 120.274 232.901 75.9595 206.26C31.4796 179.517 16.8623 120.205 43.7469 76.0038C70.7338 31.6378 130.593 17.061 175.194 43.8744C219.97 70.7918 234.68 130.488 207.623 174.98C180.459 219.635 120.214 234.309 75.3149 207.32C30.2517 180.226 15.4414 120.137 42.6815 75.359C70.0217 30.4137 130.658 15.6444 175.844 42.8113C221.2 70.0799 236.1 130.554 208.684 175.623C181.171 220.859 120.145 235.723 74.6658 208.382C29.0192 180.935 14.0216 120.069 41.6116 74.7153C69.305 29.1901 130.719 14.229 176.49 41.7493C222.425 69.3691 237.517 130.622 209.751 176.266C181.885 222.084 120.076 237.133 74.0121 209.44C27.7879 181.646 12.5973 120.002 40.5428 74.0672C68.5895 27.9676 130.786 12.8203 177.137 40.6884C223.657 68.6594 238.94 130.691 210.82 176.917C182.599 223.305 120.009 238.549 73.3652 210.504C26.5577 182.358 11.1798 119.942 39.4752 73.4257C67.8751 26.7463 130.855 11.4072 177.791 39.6287C224.89 67.9509 240.364 130.761 211.89 177.557C183.315 224.527 119.942 239.962 72.7195 211.564C25.3286 183.066 9.75776 119.873 38.4092 72.7798C67.1619 25.5204 130.92 9.99509 178.44 38.565C226.119 67.2378 241.785 130.821 212.956 178.199C184.032 225.75 119.877 241.37 72.0754 212.625C24.1018 183.775 8.34305 119.804 37.3444 72.13C66.4503 24.2963 130.991 8.57912 179.086 37.5025C227.349 66.5265 243.206 130.888 214.023 178.848C184.744 226.97 119.808 242.785 71.4212 213.682C22.8699 184.485 6.91822 119.737 36.275 71.4869C65.7342 23.0732 131.058 7.16428 179.732 36.4411C228.58 65.8163 244.623 130.956 215.091 179.492C185.458 228.195 119.74 244.195 70.7738 214.746C21.6391 185.196 5.4945 119.671 35.2068 70.8449C65.0193 21.8519 131.126 5.75614 180.385 35.3808C229.807 65.1072 246.047 131.026 216.161 180.137C186.173 229.422 119.673 245.612 70.1274 215.811C20.4094 185.909 4.07754 119.606 34.1398 70.204C64.3055 20.6311 131.195 4.34352 181.034 34.3216C231.041 64.3992 247.472 131.091 217.231 180.784C186.889 230.639 119.607 247.025 69.4766 216.871C19.1809 186.617 2.65608 119.537 33.0738 69.5531C63.5928 19.4058 131.266 2.93202 181.678 33.2579C232.27 63.6867 248.886 131.151 218.291 181.426C187.601 231.863 119.537 248.433 68.8269 217.932C17.9485 187.326 1.23574 119.469 32.0033 68.9088C62.8756 18.1817 131.326 1.51605 182.328 32.1954C233.498 62.9748 250.308 131.218 219.362 182.069C188.314 233.085 119.471 249.848 68.1817 218.99C16.7143 188.037 -0.191346 119.403 30.9323 68.2668C62.1572 16.9597 131.391 0.107914 182.973 31.1351C234.724 62.2663 251.723 131.288 220.425 182.72C189.026 234.309 119.398 251.259 67.5236 220.054C15.4841 188.748 -1.6145 119.337 29.8647 67.6192C61.4429 15.7384 131.46 -1.30582 183.621 30.0754C235.957 61.5572 253.147 131.352 221.495 183.36C189.741 235.531 119.337 252.671 66.8778 221.114C14.255 189.456 -3.0309 119.267 28.7982 66.9733C60.7296 14.5126 131.524 -2.72347 184.276 29.0111C237.186 60.8442 254.573 131.417 222.566 184.002C190.458 236.754 119.272 254.084 66.2332 222.175C13.0271 190.164 -4.45179 119.198 27.7328 66.3285C60.0175 13.2878 131.589 -4.1344 184.921 27.948C238.415 60.1323 255.988 131.484 223.627 184.644C191.164 237.972 119.202 255.493 65.584 223.237C11.7946 190.874 -5.87719 119.13 26.6629 65.6793C59.3008 12.0642 131.655 -5.54981 185.566 26.8861C239.644 59.4221 257.41 131.552 224.694 185.293C191.878 239.198 119.134 256.908 64.9304 224.294C10.5638 191.585 -7.29584 119.07 25.5941 65.0367C58.5853 10.8418 131.723 -6.95851 186.213 25.8252C240.872 58.7124 258.828 131.62 225.76 185.938C192.595 240.424 119.069 258.319 64.2863 225.358C9.33645 192.297 -8.71618 119.004 24.5293 64.3953C57.8737 9.62097 131.794 -8.37169 186.87 24.7655C242.108 58.0033 260.255 131.69 226.836 186.584C193.31 241.652 119.003 259.737 63.6406 226.424C8.10736 193.01 -10.1326 118.94 23.4633 63.755C57.1616 8.40073 131.859 -9.78374 187.514 23.7074C243.337 57.2959 261.675 131.756 227.896 187.232C194.022 242.87 118.932 261.145 62.9853 227.485C6.87434 193.719 -11.5585 118.872 22.3929 63.1051C56.4444 7.17658 131.925 -11.1941 188.159 22.6449C244.567 56.5856 263.091 131.823 228.963 187.875C194.735 244.094 118.863 262.56 62.3367 228.542C5.64132 194.429 -12.9778 118.804 21.3235 62.462C55.7283 5.95187 131.992 -12.609 188.811 21.5835C245.793 55.8754 264.513 131.892 230.032 188.519C195.448 245.32 118.795 263.976 61.6892 229.606C4.41448 195.14 -14.4015 118.738 20.2553 61.82C55.0134 4.73386 132.06 -14.0171 189.458 20.5232C247.026 55.1663 265.931 131.961 231.101 189.17" stroke="black"/>
</g>
<path opacity="0.236" fill-rule="evenodd" clip-rule="evenodd" d="M250.721 124.992C250.721 157.804 237.61 189.271 214.273 212.473C190.935 235.674 159.283 248.708 126.279 248.708C93.2755 248.708 61.6234 235.674 38.2861 212.473C14.9489 189.271 1.83813 157.804 1.83813 124.992C1.83813 92.181 14.9489 60.7135 38.2861 37.5123C61.6234 14.3111 93.2755 1.27682 126.279 1.27682C159.283 1.27682 190.935 14.3111 214.273 37.5123C237.61 60.7135 250.721 92.181 250.721 124.992V124.992Z" fill="url(#paint2_linear)" stroke="black"/>
<path opacity="0.51" d="M176.863 125.004C176.863 138.488 171.475 151.42 161.884 160.955C152.294 170.489 139.286 175.846 125.722 175.846C112.159 175.846 99.1514 170.489 89.5606 160.955C79.9699 151.42 74.5819 138.488 74.5819 125.004C74.5819 118.327 75.9047 111.716 78.4748 105.547C81.0448 99.3786 84.8118 93.7738 89.5606 89.0526C94.3095 84.3315 99.9472 80.5864 106.152 78.0314C112.356 75.4763 119.007 74.1612 125.722 74.1612C132.438 74.1612 139.088 75.4763 145.293 78.0314C151.498 80.5864 157.136 84.3315 161.884 89.0526C166.633 93.7738 170.4 99.3786 172.97 105.547C175.54 111.716 176.863 118.327 176.863 125.004V125.004Z" fill="black"/>
<path d="M167.767 125.004C167.71 136.053 163.254 146.63 155.375 154.423C147.496 162.216 136.834 166.59 125.72 166.59C114.605 166.59 103.943 162.216 96.0641 154.423C88.1849 146.63 83.7296 136.053 83.6721 125.004C83.6434 119.496 84.7099 114.037 86.8101 108.94C88.9104 103.843 92.003 99.2094 95.9103 95.3047C99.8177 91.4001 104.463 88.3015 109.578 86.1872C114.694 84.0728 120.18 82.9844 125.72 82.9844C131.26 82.9844 136.745 84.0728 141.861 86.1872C146.977 88.3015 151.622 91.4001 155.529 95.3047C159.436 99.2094 162.529 103.843 164.629 108.94C166.73 114.037 167.796 119.496 167.767 125.004V125.004Z" fill="url(#paint3_radial)"/>
<path d="M127.998 125.009C127.998 125.609 127.758 126.183 127.332 126.607C126.906 127.031 126.328 127.269 125.725 127.269C125.122 127.269 124.544 127.031 124.117 126.607C123.691 126.183 123.452 125.609 123.452 125.009C123.452 124.41 123.691 123.835 124.117 123.411C124.544 122.987 125.122 122.749 125.725 122.749C126.328 122.749 126.906 122.987 127.332 123.411C127.758 123.835 127.998 124.41 127.998 125.009Z" fill="black"/>
<path d="M128.088 125.233C128.088 125.832 127.848 126.407 127.422 126.831C126.996 127.255 126.418 127.493 125.815 127.493C125.212 127.493 124.634 127.255 124.207 126.831C123.781 126.407 123.542 125.832 123.542 125.233C123.542 124.634 123.781 124.059 124.207 123.635C124.634 123.211 125.212 122.973 125.815 122.973C126.418 122.973 126.996 123.211 127.422 123.635C127.848 124.059 128.088 124.634 128.088 125.233V125.233Z" fill="black" stroke="white" stroke-width="0.04849"/>
<defs>
<radialGradient id="paint0_radial" cx="0" cy="0" r="1" gradientUnits="userSpaceOnUse" gradientTransform="translate(125.72 125.004) scale(124.72 123.992)">
<stop stop-color="#242427"/>
<stop offset="1"/>
</radialGradient>
<linearGradient id="paint1_linear" x1="2.58065" y1="-156.451" x2="248.87" y2="-156.451" gradientUnits="userSpaceOnUse">
<stop stop-color="#F2F5F5" stop-opacity="0.32"/>
<stop offset="1" stop-color="white"/>
</linearGradient>
<linearGradient id="paint2_linear" x1="41.332" y1="34.6097" x2="136.783" y2="132.893" gradientUnits="userSpaceOnUse">
<stop stop-color="white" stop-opacity="0.531"/>
<stop offset="0.5" stop-color="#7F7F7F" stop-opacity="0.765"/>
<stop offset="1"/>
</linearGradient>
<radialGradient id="paint3_radial" cx="0" cy="0" r="1" gradientUnits="userSpaceOnUse" gradientTransform="translate(125.722 125.008) scale(42.0486 41.8034)">
<stop stop-color="white"/>
<stop offset="0.88" stop-color="#EDEDED" stop-opacity="0.979"/>
<stop offset="1" stop-color="white"/>
</radialGradient>
</defs>
</svg>
