<svg width="128" height="125" viewBox="0 0 128 125" fill="none" xmlns="http://www.w3.org/2000/svg">
<path fill-rule="evenodd" clip-rule="evenodd" d="M126.579 62.5018C126.579 79.0398 119.971 94.9005 108.209 106.595C96.4468 118.289 80.4941 124.858 63.8602 124.858C47.2262 124.858 31.2736 118.289 19.5116 106.595C7.7496 94.9005 1.14178 79.0398 1.14178 62.5018C1.14178 45.9638 7.7496 30.1032 19.5116 18.409C31.2736 6.71487 47.2262 0.145172 63.8602 0.145172C80.4941 0.145172 96.4468 6.71487 108.209 18.409C119.971 30.1032 126.579 45.9638 126.579 62.5018V62.5018Z" fill="url(#paint0_radial)" stroke="black"/>
<g opacity="0.03">
<path fill-rule="evenodd" clip-rule="evenodd" d="M63.7028 62.6596C63.7837 62.7085 63.6765 62.7922 63.6211 62.7934C63.471 62.7965 63.4036 62.6208 63.4338 62.4971C63.4877 62.276 63.7473 62.1886 63.9479 62.2584C64.2424 62.361 64.3534 62.7109 64.2408 62.9846C64.0908 63.3495 63.6435 63.4832 63.2942 63.3283C62.8546 63.1335 62.6964 62.5928 62.8957 62.1722C63.1371 61.6626 63.778 61.4817 64.2748 61.7235C64.8603 62.0084 65.0661 62.7426 64.7789 63.3096C64.4473 63.9643 63.6111 64.1927 62.9673 63.8633C62.2357 63.4889 61.9821 62.5603 62.3577 61.8472C62.779 61.0471 63.811 60.7711 64.6017 61.1885C65.4796 61.652 65.7811 62.7755 65.3169 63.6346C64.8061 64.5802 63.5779 64.9038 62.6404 64.3982C61.6162 63.8459 61.2667 62.5272 61.8196 61.522C62.4198 60.431 63.8444 60.0596 64.9285 60.6534C66.0991 61.2946 66.4966 62.8086 65.8549 63.9595C65.1655 65.1961 63.5443 65.6152 62.3134 64.933C60.9964 64.2032 60.5509 62.4937 61.2814 61.1971C62.0601 59.8149 63.8778 59.3481 65.2553 60.1186C66.7188 60.9372 67.2123 62.8422 66.3929 64.2847C65.525 65.8125 63.5108 66.327 61.9863 65.4682C60.3764 64.5609 59.8349 62.4603 60.7432 60.8723C61.7002 59.1988 63.9113 58.6365 65.582 59.5838C67.3385 60.5796 67.928 62.8758 66.9308 64.6098C65.8846 66.429 63.4768 67.039 61.6596 66.0033C59.7566 64.9188 59.1191 62.4272 60.2053 60.5474C61.3406 58.5826 63.945 57.9248 65.9091 59.049C67.9585 60.222 68.6441 62.9095 67.469 64.935C66.2446 67.0454 63.4432 67.751 61.3328 66.5384C59.1369 65.2768 58.4031 62.3938 59.6673 60.2225C60.9808 57.9664 63.9789 57.213 66.2361 58.5142C68.5786 59.8644 69.3604 62.9429 68.0072 65.2599C66.6046 67.6617 63.4096 68.4628 61.0061 67.0732C58.5171 65.6344 57.6874 62.3601 59.1294 59.8974C60.6211 57.3499 64.0128 56.5011 66.5632 57.9791C69.1987 59.5064 70.0764 62.9763 68.5455 65.5848C66.9647 68.2779 63.3763 69.1746 60.6793 67.6081C57.8973 65.9921 56.9714 62.3264 58.5915 59.5722C60.2613 56.7335 64.0467 55.789 66.8902 57.444C69.8188 59.1484 70.7927 63.0098 69.0837 65.9096C67.3248 68.8941 63.3427 69.8863 60.3526 68.1429C57.2774 66.3499 56.2554 62.293 58.0536 59.2471C59.9015 56.1169 64.0806 55.0768 67.217 56.9088C70.4388 58.7904 71.5087 63.0432 69.6216 66.2345C67.6846 69.5104 63.3088 70.5981 60.0255 68.6777C56.6575 66.7076 55.5394 62.2592 57.5154 58.9222C59.5415 55.5006 64.1142 54.3652 67.5438 56.374C71.0584 58.4327 72.2247 63.0769 70.1595 66.5597C68.0444 70.127 63.2749 71.3103 59.6985 69.2128C56.0373 67.0656 54.8231 62.2258 56.9771 58.5973C59.1813 54.8845 64.1478 53.6533 67.8705 55.8392C71.6783 58.0749 72.9404 63.1106 70.6975 66.8848C68.4042 70.7433 63.241 72.0225 59.3714 69.7481C55.4171 67.4238 54.1067 62.1925 56.4389 58.2726C58.8212 54.2683 64.1814 52.9416 68.1972 55.3045C72.2981 57.7173 73.6564 63.1444 71.2353 67.2101C68.7639 71.3601 63.207 72.7345 59.0446 70.283C54.7971 67.7817 53.3906 62.159 55.9008 57.9476C58.4612 53.6519 64.2148 52.2296 68.5241 54.7695C72.9179 57.3594 74.3725 63.1779 71.7734 67.5348C69.1239 71.9762 63.1732 73.4462 58.7177 70.8177C54.1773 68.1393 52.6748 62.1252 55.3627 57.6223C58.1012 53.0351 64.2489 51.5173 68.851 54.2342C73.5379 57.0012 75.0887 63.2112 72.3115 67.8595C69.4839 72.5924 63.1395 74.1579 58.3908 71.3525C53.5573 68.4968 51.9586 62.0913 54.8249 57.297C57.7416 52.4184 64.2826 50.805 69.1782 53.6989C74.1582 56.6431 75.8051 63.2445 72.8498 68.1842C69.8441 73.2083 63.106 74.8696 58.0642 71.8872C52.9376 68.8545 51.2428 62.0575 54.2871 56.9717C57.3818 51.802 64.3169 50.093 69.505 53.1637C74.7782 56.2848 76.5212 63.2777 73.3879 68.509C70.2042 73.8245 63.0723 75.5813 57.7373 72.4219C52.3176 69.2122 50.5267 62.0237 53.749 56.6467C57.0218 51.1855 64.3504 49.381 69.8319 52.629C75.3983 55.9271 77.2371 63.3116 73.9257 68.8342C70.5639 74.4412 63.0383 76.2936 57.4102 72.9571C51.6975 69.5705 49.8102 61.9904 53.2106 56.322C56.6614 50.5693 64.3841 48.6693 70.1585 52.0943C76.0177 55.5694 77.9529 63.3454 74.4635 69.1595C70.9237 75.0579 63.0043 77.0056 57.083 73.4924C51.0772 69.9287 49.0938 61.9572 52.6722 55.9973C56.3011 49.9532 64.4173 47.9575 70.4851 51.5596C76.6375 55.2117 78.6688 63.3792 75.0014 69.4848C71.2835 75.6746 62.9702 77.7179 56.7561 74.0274C50.4572 70.2867 48.3777 61.9236 52.1341 55.6723C55.941 49.337 64.4513 47.2455 70.812 51.0246C77.2575 54.8538 79.3849 63.4127 75.5394 69.8098C71.6435 76.2908 62.9365 78.4299 56.4292 74.5624C49.8372 70.6447 47.6615 61.8901 51.596 55.3473C55.581 48.7206 64.4847 46.5335 71.1389 50.4896C77.8775 54.4961 80.101 63.4463 76.0775 70.1345C72.0036 76.907 62.9028 79.1416 56.1023 75.0971C49.2171 71.0021 46.9457 61.8563 51.0582 55.022C55.2215 48.1038 64.519 45.8212 71.466 49.9543C78.4978 54.1378 80.8175 63.4795 76.6159 70.4592C72.3636 77.5231 62.8693 79.8534 55.7757 75.6318C48.5974 71.3598 46.2299 61.8224 50.5204 54.6968C54.8617 47.4871 64.5528 45.1092 71.7929 49.419C79.1176 53.7796 81.5336 63.5128 77.154 70.7839C72.7237 78.1393 62.8356 80.5651 55.4489 76.1665C47.9777 71.7175 45.5137 61.7886 49.9823 54.3715C54.5017 46.8704 64.5868 44.397 72.1198 48.884C79.7376 53.4216 82.2497 63.5464 77.6918 71.1089C73.0834 78.7558 62.8016 81.2771 55.1217 76.7015C47.3573 72.0755 44.7973 61.7551 49.4439 54.0465C54.1413 46.2539 64.62 43.685 72.4464 48.3491C80.3573 53.0636 82.9656 63.5799 78.2296 71.4339C73.4432 79.3719 62.7675 81.9891 54.7945 77.2365C46.737 72.4334 44.0809 61.7215 48.9056 53.7218C53.781 45.638 64.6537 42.9732 72.773 47.8144C80.9771 52.7059 83.6811 63.6137 78.7674 71.7592C73.803 79.9887 62.7335 82.7014 54.4677 77.7715C46.117 72.7914 43.3647 61.688 48.3675 53.3968C53.421 45.0216 64.6874 42.2612 73.0999 47.2794C81.5971 52.3479 84.3973 63.6473 79.3055 72.0842C74.163 80.6051 62.6998 83.4134 54.1408 78.3065C45.4973 73.1494 42.6486 61.6544 47.8294 53.0718C53.0609 44.4051 64.7212 41.5492 73.4268 46.7444C82.2168 51.99 85.1134 63.6808 79.8436 72.4092C74.5231 81.2216 62.666 84.1254 53.8139 78.8415C44.8772 73.5074 41.9325 61.6209 47.2916 52.7468C52.7011 43.7887 64.7552 40.8372 73.7539 46.2094C82.8371 51.632 85.8298 63.7143 80.382 72.7339C74.8834 81.8377 62.6326 84.8368 53.4873 79.3762C44.2575 73.865 41.2166 61.5871 46.7538 52.4215C52.3416 43.172 64.7892 40.1249 74.0808 45.6741C83.4572 51.2737 86.546 63.7476 80.9201 73.0586C75.2432 82.4539 62.5989 85.5486 53.1604 79.9109C43.6375 74.2225 40.5008 61.5533 46.2157 52.0962C51.9816 42.5555 64.823 39.4127 74.4077 45.1391C84.0772 50.916 87.2621 63.7812 81.4579 73.3825C75.6029 83.0689 62.5648 86.2594 52.8324 80.4447C43.0163 74.5793 39.7832 61.5186 45.6764 51.7701C51.6204 41.9379 64.8556 38.6995 74.7329 44.603C84.6955 50.5569 87.9765 63.8136 81.9943 73.7089C75.9613 83.6868 62.5294 86.9728 52.5041 80.9811C42.3949 74.9387 39.066 61.4864 45.1369 51.4468C51.2589 41.3232 64.8879 37.9892 75.0581 44.0697C85.3136 50.2007 88.691 63.8488 82.5307 74.0353C76.3196 84.3047 62.494 87.6863 52.1758 81.5173C41.7737 75.2978 38.3484 61.4537 44.5974 51.1232C50.8975 40.7081 64.9202 37.2789 75.3832 43.5361C85.9319 49.8441 89.4054 63.8838 83.0671 74.3614C76.678 84.9222 62.4585 88.3994 51.8475 82.0534C41.1523 75.6569 37.6309 61.4216 44.0579 50.7996C50.536 40.0931 64.9525 36.5683 75.7084 43.0026C86.5502 49.4875 90.1198 63.9187 83.6035 74.6875C77.0364 85.5395 62.4231 89.1125 51.5192 82.5895C40.5308 76.016 36.9133 61.3889 43.5187 50.4761C50.1748 39.4781 64.9851 35.8577 76.0367 42.469C87.1717 49.131 90.8374 63.9537 84.143 75.0137C77.3978 86.1571 62.3908 89.8256 51.194 83.1256C39.9125 76.3751 36.1989 61.3565 42.9823 50.1525C49.8165 38.8633 65.0206 35.1471 76.365 41.9354C87.7931 48.7744 91.5546 63.9886 84.6825 75.3398C77.7593 86.7747 62.3584 90.5388 50.8688 83.6617C39.2942 76.7342 35.4844 61.3241 42.4459 49.8289C49.4581 38.2483 65.056 34.4365 76.6933 41.4021C88.4145 48.4181 92.2722 64.0238 85.2217 75.6662C78.1205 87.3925 62.3258 91.2522 50.5434 84.1981C38.6759 77.0936 34.7697 61.292 41.9092 49.5028C49.0995 37.6307 65.0912 33.7234 77.0213 40.866C89.0354 48.059 92.9895 64.0563 85.7609 75.9898C78.4817 88.0076 62.2932 91.9628 50.2179 84.7317C38.0573 77.4501 34.055 61.257 41.3726 49.1766C48.7409 37.0131 65.1263 33.0103 77.3493 40.3299C89.6566 47.7002 93.7067 64.0887 86.3002 76.3134C78.8428 88.6226 62.2606 92.6731 49.8925 85.265C37.4386 77.8061 33.3403 61.2218 40.8359 48.8502C48.3822 36.3955 65.1615 32.2969 77.6774 39.7935C90.2777 47.3408 94.424 64.1208 86.8394 76.6367C79.2037 89.2374 62.2278 93.3834 49.5642 85.7983C36.8172 78.1624 32.6227 61.1865 40.2964 48.5238C48.021 35.7777 65.1938 31.5834 78.0025 39.2571C90.8961 46.9814 95.1384 64.1529 87.3758 76.96C79.5621 89.8519 62.1926 94.0937 49.2359 86.3316C36.1958 78.5187 31.9052 61.1513 39.7571 48.1974C47.6599 35.1598 65.2264 30.87 78.328 38.7207C91.5147 46.622 95.8531 64.1851 87.9124 77.2833C79.9207 90.4666 62.1572 94.804 48.9078 86.8649C35.5746 78.875 31.1882 61.1161 39.2179 47.871C47.2987 34.5419 65.259 30.1566 78.6535 38.1843C92.133 46.2627 96.5679 64.2172 88.4491 77.6094C80.2794 91.0842 62.122 95.5172 48.5798 87.401C34.9537 79.2341 30.4709 61.0837 38.6787 47.5474C46.9375 33.9269 65.2916 29.446 78.9789 37.651C92.7516 45.9064 97.2826 64.2524 88.9855 77.9358C80.6377 91.702 62.0866 96.2306 48.2515 87.9374C34.3323 79.5935 29.7534 61.0515 38.1392 47.2241C46.576 33.3122 65.3239 28.7357 79.3041 37.1177C93.3699 45.5501 97.997 64.2877 89.5219 78.2622C80.9961 92.3199 62.0511 96.944 47.9232 88.4738C33.7108 79.9529 29.0358 61.0194 37.5997 46.9008C46.2145 32.6974 65.3562 28.0257 79.6321 36.5844C93.9911 45.1938 98.7143 64.3229 90.0611 78.5886C81.3572 92.9375 62.0185 97.6574 47.5978 89.0099C33.0922 80.312 28.3211 60.987 37.063 46.5772C45.8559 32.0826 65.3914 27.3151 79.9601 36.0508C94.6122 44.8372 99.4315 64.359 90.6004 78.9147C81.7184 93.5551 61.9862 98.3705 47.2723 89.546C32.4736 80.6711 27.6064 60.9531 36.5263 46.2536C45.4973 31.4676 65.4268 26.6045 80.2882 35.5172C95.2334 44.4807 100.149 64.392 91.1396 79.2409C82.0796 94.1726 61.9527 99.0837 46.9468 90.0821C31.8553 81.0302 26.8917 60.9227 35.9899 45.9272C45.1389 30.8497 65.4631 25.8911 80.6164 34.9808C95.8546 44.1213 100.866 64.4249 91.6791 79.5642C82.4411 94.7874 61.9224 99.794 46.6217 90.6154C31.237 81.3865 26.1773 60.8866 35.4535 45.6008C44.7806 30.2319 65.4966 25.1777 80.9447 34.4444C96.476 43.7619 101.584 64.4579 92.2186 79.8875C82.8023 95.4022 61.8892 100.504 46.2965 91.1487C30.6186 81.7427 25.4628 60.8505 34.9171 45.2744C44.4225 29.614 65.5329 24.4643 81.2731 33.9083C97.0974 43.4031 102.301 64.4884 92.7578 80.2111C83.1635 96.0172 61.8558 101.215 45.9682 91.6823C29.9972 82.099 24.7453 60.8176 34.3776 44.9483C44.061 28.9967 65.566 23.7511 81.5982 33.3722C97.7158 43.044 103.016 64.5216 93.2942 80.5346C83.5218 96.6319 61.8195 101.925 45.6399 92.2159C29.3758 82.4556 24.0277 60.7818 33.8381 44.6222C43.6996 28.3791 65.5964 23.038 81.9234 32.8361C98.3341 42.6849 103.73 64.5549 93.8306 80.8582C83.8802 97.247 61.7861 102.636 45.3116 92.7492C28.7555 82.8161 23.3113 60.7513 33.2995 44.2986C43.3384 27.765 65.6304 22.3283 82.2494 32.3022C98.953 42.328 104.445 64.5904 94.3679 81.1841C84.2394 97.8643 61.7506 103.349 44.9841 93.285C28.1368 83.1744 22.5966 60.7178 32.7622 43.9747C42.9797 27.1488 65.6658 21.6165 82.5797 31.7698C99.5764 41.9726 105.165 64.6245 94.9094 81.5141C84.6028 98.4858 61.7194 104.066 44.6609 93.8251C27.5171 83.5312 21.8805 60.6828 32.2264 43.6494C42.6197 26.5312 65.6998 20.9034 82.9058 31.2331C100.196 41.6129 105.88 64.6572 95.4466 81.8372C84.962 99.1003 61.6868 104.776 44.3335 94.3581C26.8985 83.8895 21.1657 60.6493 31.6892 43.3228C42.2611 25.915 65.7353 20.1917 83.2332 30.6978C100.816 41.2547 106.597 64.6913 95.9853 82.1616C85.3226 99.7164 61.6528 105.486 44.0075 94.8908C26.2785 84.2474 20.4496 60.6155 31.1505 42.9986C41.901 25.2989 65.7693 19.4797 83.5621 30.1623C101.438 40.8961 107.315 64.7223 96.5251 82.4857C85.6844 100.331 61.6199 106.198 43.6826 95.4267C25.6596 84.6057 19.7346 60.5819 30.613 42.6747C41.5421 24.6827 65.8045 18.768 83.8892 29.627C102.058 40.5379 108.031 64.7564 97.0634 82.8102C86.0447 100.947 61.5856 106.91 43.3562 95.9611C25.0393 84.9625 19.0182 60.547 30.074 42.3466C41.1818 24.0637 65.8353 18.0534 84.215 29.0909C102.677 40.1788 108.746 64.7897 97.6004 83.1338C86.4036 101.562 61.5527 107.62 43.0285 96.4944C24.4204 85.3211 18.3032 60.5137 29.5393 42.0231C40.8228 23.4492 65.8733 17.3437 84.5421 28.5581C103.297 39.8231 109.463 64.8235 98.1388 83.4607C86.764 102.181 61.5184 108.334 42.7022 97.0314C23.8001 85.6776 17.5871 60.4785 28.9998 41.6975C40.4625 22.8314 65.9065 16.63 84.8702 28.0215C103.919 39.4637 110.18 64.8562 98.678 83.7838C87.1252 102.795 61.485 109.044 42.3767 97.5644C23.1809 86.0359 16.8715 60.4449 28.4623 41.3736C40.103 22.2155 65.9417 15.9185 85.1973 27.4868C104.539 39.106 110.896 64.8909 99.2164 84.1088C87.4852 103.411 61.4535 109.756 42.0476 98.0994C22.5606 86.3961 16.1551 60.4134 27.9239 41.0489C39.7455 21.6013 65.9731 15.2088 85.5236 26.954C105.159 38.7517 111.612 64.9275 99.7556 84.4385C87.8455 104.031 61.42 110.472 41.7221 98.6391C21.9411 86.7555 15.4395 60.381 27.3867 40.7262C39.386 20.9863 66.0057 14.4982 85.8511 26.4207C105.779 38.3951 112.328 64.9608 100.29 84.7621C88.2042 104.648 61.3846 111.185 41.3947 99.1741C21.3197 87.1101 14.722 60.3494 26.8472 40.4015C39.0246 20.3693 66.0389 13.7856 86.1763 25.8852C106.397 38.0354 113.043 64.9946 100.829 85.0891C88.5634 105.266 61.3506 111.898 41.0658 99.7097C20.6997 87.4681 14.0058 60.3156 26.3091 40.0745C38.6645 19.7528 66.0735 13.0736 86.5029 25.3502C107.017 37.6775 113.759 65.029 101.366 85.4138C88.9231 105.882 61.3157 112.609 40.7389 100.244C20.0791 87.8277 13.2888 60.2834 25.7701 39.752C38.3036 19.138 66.1072 12.3633 86.8314 24.8169C107.638 37.3212 114.477 65.0623 101.906 85.7402C89.2846 106.5 61.2828 113.324 40.414 100.781C19.4602 88.1868 12.5738 60.2507 25.2332 39.429C37.9447 18.5227 66.143 11.6524 87.1592 24.283C108.259 36.9643 115.194 65.0978 102.445 86.0661C89.6458 107.117 61.2491 114.035 40.0883 101.316C18.8404 88.5448 11.858 60.2169 24.6954 39.102C37.5849 17.9066 66.1778 10.9404 87.4861 23.748C108.879 36.6075 115.91 65.1322 102.982 86.3908C90.0064 107.734 61.2165 114.747 39.7608 101.851C18.2218 88.9022 11.1438 60.1825 24.1587 38.7773C37.2263 17.2895 66.211 10.2267 87.8112 23.2125C109.499 36.249 116.627 65.166 103.52 86.7149C90.3656 108.348 61.1816 115.457 39.4339 102.384C17.6009 89.2602 10.4257 60.1487 23.62 38.4532C36.8654 16.6731 66.245 9.51642 88.1401 22.6778C110.117 35.891 117.341 65.1978 104.059 87.0399C90.7257 108.967 61.1476 116.171 39.1079 102.92C16.9809 89.619 9.71129 60.1157 23.0819 38.1299C36.5053 16.0575 66.2796 8.80414 88.4667 22.1436C110.739 35.5339 118.059 65.2302 104.598 87.3683C91.0863 109.585 61.1141 116.886 38.7796 103.457C16.3617 89.9784 8.99459 60.0833 22.5444 37.8043C36.1459 15.4425 66.3148 8.09524 88.7939 21.61C111.361 35.1773 118.775 65.266 105.138 87.6916C91.4475 110.199 61.0841 117.595 38.4547 103.992C15.7429 90.3355 8.27845 60.0486 22.0075 37.4793C35.7869 14.8254 66.3476 7.38126 89.1216 21.0742C111.981 34.8185 119.491 65.2996 105.673 88.0155C91.8064 110.816 61.0489 118.308 38.1276 104.527C15.1217 90.6932 7.56289 60.0145 21.4682 37.1549C35.4258 14.2087 66.3783 6.66785 89.4471 20.5389C112.598 34.4602 120.205 65.3337 106.211 88.3399C92.1659 111.433 61.0143 119.019 37.7981 105.06C14.5011 91.0515 6.84505 59.981 20.9296 36.8282C35.0651 13.5925 66.4123 5.95782 89.7731 20.0042C113.219 34.1025 120.922 65.3684 106.749 88.6677C92.5259 112.049 60.9803 119.733 37.4721 105.597C13.8811 91.4103 6.13062 59.9508 20.3915 36.5049C34.7051 12.9769 66.4469 5.24553 90.1025 19.4701C113.84 33.7454 121.64 65.4036 107.289 88.9905C92.8865 112.665 60.9469 120.444 37.1466 106.131C13.2616 91.7669 5.41392 59.9156 19.8542 36.1793C34.3456 12.3591 66.4795 4.53381 90.43 18.934C114.46 33.386 122.355 65.434 107.826 89.314C93.248 113.281 60.9143 121.154 36.822 106.666C12.6433 92.1243 4.70091 59.8812 19.3176 35.8518C33.987 11.7421 66.5155 3.82011 90.7552 18.3984C115.08 33.0275 123.072 65.4679 108.364 89.641C93.6072 113.896 60.8794 121.867 36.4923 107.199C12.0224 92.4823 3.98279 59.8474 18.7786 35.5277C33.6261 11.1256 66.5492 3.10698 91.0809 17.8634C115.7 32.6695 123.786 65.5023 108.902 89.9657C93.967 114.514 60.8451 122.578 36.166 107.735C11.4021 92.8408 3.26524 59.8141 18.2403 35.2041C33.2657 10.51 66.5835 2.39724 91.41 17.329C116.319 32.3121 124.504 65.5372 109.441 90.291C94.3273 115.132 60.8114 123.292 35.8402 108.271C10.7824 93.1999 2.55109 59.7814 17.7024 34.881C32.906 9.89469 66.6184 1.68523 91.7369 16.7951C116.941 31.9552 125.222 65.5699 109.98 90.6168C94.6882 115.746 60.7782 124.004 35.5122 108.806C10.1632 93.5568 1.83467 59.7465 17.1652 34.5529C32.5468 9.27712 66.6538 0.973794 92.0615 16.259C117.56 31.5961 125.935 65.6003 110.515 90.9404C95.0468 116.362 60.7428 124.714 35.1848 109.341C9.54204 93.9142 1.11882 59.7121 16.6257 34.2282C32.1853 8.6601 66.6842 0.260099 92.3896 15.7235C118.179 31.2373 126.651 65.6342 111.054 91.2646C95.4061 116.978 60.7096 125.427 34.8596 109.874C8.92003 94.2727 0.399569 59.6788 16.0859 33.9046C31.8233 8.04422 66.7171 -0.449649 92.7145 15.1891C118.797 30.8802 127.364 65.6691 111.59 91.5927C95.765 117.595 60.6727 126.139 34.5279 110.41C8.3 94.6312 -0.317699 59.6456 15.5478 33.5782C31.4632 7.42861 66.7516 -1.16222 93.0411 14.6549C119.418 30.5228 128.082 65.7015 112.129 91.9154C96.1256 118.211 60.6421 126.85 34.2024 110.944C7.68054 94.9878 -1.03156 59.6103 15.0103 33.2527C31.1037 6.81076 66.784 -1.87676 93.3711 14.1185C120.038 30.1634 128.801 65.7345 112.669 92.2387C96.4868 118.828 60.6092 127.563 33.8775 111.479C7.06165 95.3449 -1.7477 59.5757 14.4733 32.9277C30.7448 6.19346 66.8168 -2.58791 93.696 13.5827C120.657 29.8046 129.514 65.7681 113.204 92.5626C96.8429 119.442 60.5741 128.273 33.5504 112.014C6.44049 95.7026 -2.4661 59.5415 13.9341 32.6004C30.3836 5.57673 66.8503 -3.30133 94.0214 13.0474C121.276 29.4466 130.231 65.8022 113.742 92.8898C97.2023 120.059 60.5395 128.986 33.2209 112.547C5.82018 96.0609 -3.1811 59.5108 13.3954 32.2766C30.023 4.96056 66.8843 -4.01136 94.3474 12.5127C121.896 29.0889 130.945 65.8368 114.279 93.2148C97.5638 120.677 60.5069 129.697 32.8963 113.084C5.20158 96.4197 -3.89695 59.4778 12.8588 31.9533C29.6644 4.34524 66.9203 -4.72364 94.6783 11.9786C122.518 28.7315 131.664 65.8721 114.821 93.5404C97.9244 121.296 60.4734 130.412 32.5709 113.621C4.58212 96.7791 -4.61081 59.4454 12.3215 31.6305C29.3055 3.7302 66.9529 -5.43536 95.0029 11.4453C123.138 28.3749 132.38 65.9053 115.356 93.8668C98.2831 121.91 60.438 131.122 32.2406 114.156C3.96067 97.1365 -5.3295 59.411 11.782 31.303C28.944 3.11319 66.9861 -6.14624 95.3281 10.9097C123.758 28.0169 133.094 65.9391 115.894 94.191C98.6423 122.527 60.4031 131.835 31.9137 114.689C3.33923 97.4945 -6.04478 59.3772 11.2431 30.9788C28.5831 2.49589 67.0198 -6.85937 95.6567 10.3747C124.376 27.659 133.811 65.9735 116.432 94.5157C99.002 123.145 60.3688 132.548 31.5874 115.225C2.72091 97.853 -6.76233 59.344 10.7047 30.6552C28.2227 1.88198 67.0541 -7.56912 95.983 9.84029C124.997 27.3016 134.525 66.0085 116.971 94.8438" fill="url(#paint1_linear)"/>
<path d="M63.7028 62.6596C63.7837 62.7085 63.6765 62.7922 63.6211 62.7934C63.471 62.7965 63.4036 62.6208 63.4338 62.4971C63.4877 62.276 63.7473 62.1886 63.9479 62.2584C64.2424 62.361 64.3534 62.7109 64.2408 62.9846C64.0908 63.3495 63.6435 63.4832 63.2942 63.3283C62.8546 63.1335 62.6964 62.5928 62.8957 62.1722C63.1371 61.6626 63.778 61.4817 64.2748 61.7235C64.8603 62.0084 65.0661 62.7426 64.7789 63.3096C64.4473 63.9643 63.6111 64.1927 62.9673 63.8633C62.2357 63.4889 61.9821 62.5603 62.3577 61.8472C62.779 61.0471 63.811 60.7711 64.6017 61.1885C65.4796 61.652 65.7811 62.7755 65.3169 63.6346C64.8061 64.5802 63.5779 64.9038 62.6404 64.3982C61.6162 63.8459 61.2667 62.5272 61.8196 61.522C62.4198 60.431 63.8444 60.0596 64.9285 60.6534C66.0991 61.2946 66.4966 62.8086 65.8549 63.9595C65.1655 65.1961 63.5443 65.6152 62.3134 64.933C60.9964 64.2032 60.5509 62.4937 61.2814 61.1971C62.0601 59.8149 63.8778 59.3481 65.2553 60.1186C66.7188 60.9372 67.2123 62.8422 66.3929 64.2847C65.525 65.8125 63.5108 66.327 61.9863 65.4682C60.3764 64.5609 59.8349 62.4603 60.7432 60.8723C61.7002 59.1988 63.9113 58.6365 65.582 59.5838C67.3385 60.5796 67.928 62.8758 66.9308 64.6098C65.8846 66.429 63.4768 67.039 61.6596 66.0033C59.7566 64.9188 59.1191 62.4272 60.2053 60.5474C61.3406 58.5826 63.945 57.9248 65.9091 59.049C67.9585 60.222 68.6441 62.9095 67.469 64.935C66.2446 67.0454 63.4432 67.751 61.3328 66.5384C59.1369 65.2768 58.4031 62.3938 59.6673 60.2225C60.9808 57.9664 63.9789 57.213 66.2361 58.5142C68.5786 59.8644 69.3604 62.9429 68.0072 65.2599C66.6046 67.6617 63.4096 68.4628 61.0061 67.0732C58.5171 65.6344 57.6874 62.3601 59.1294 59.8974C60.6211 57.3499 64.0128 56.5011 66.5632 57.9791C69.1987 59.5064 70.0764 62.9763 68.5455 65.5848C66.9647 68.2779 63.3763 69.1746 60.6793 67.6081C57.8973 65.9921 56.9714 62.3264 58.5915 59.5722C60.2613 56.7335 64.0467 55.789 66.8902 57.444C69.8188 59.1484 70.7927 63.0098 69.0837 65.9096C67.3248 68.8941 63.3427 69.8863 60.3526 68.1429C57.2774 66.3499 56.2554 62.293 58.0536 59.2471C59.9015 56.1169 64.0806 55.0768 67.217 56.9088C70.4388 58.7904 71.5087 63.0432 69.6216 66.2345C67.6846 69.5104 63.3088 70.5981 60.0255 68.6777C56.6575 66.7076 55.5394 62.2592 57.5154 58.9222C59.5415 55.5006 64.1142 54.3652 67.5438 56.374C71.0584 58.4327 72.2247 63.0769 70.1595 66.5597C68.0444 70.127 63.2749 71.3103 59.6985 69.2128C56.0373 67.0656 54.8231 62.2258 56.9771 58.5973C59.1813 54.8845 64.1478 53.6533 67.8705 55.8392C71.6783 58.0749 72.9404 63.1106 70.6975 66.8848C68.4042 70.7433 63.241 72.0225 59.3714 69.7481C55.4171 67.4238 54.1067 62.1925 56.4389 58.2726C58.8212 54.2683 64.1814 52.9416 68.1972 55.3045C72.2981 57.7173 73.6564 63.1444 71.2353 67.2101C68.7639 71.3601 63.207 72.7345 59.0446 70.283C54.7971 67.7817 53.3906 62.159 55.9008 57.9476C58.4612 53.6519 64.2148 52.2296 68.5241 54.7695C72.9179 57.3594 74.3725 63.1779 71.7734 67.5348C69.1239 71.9762 63.1732 73.4462 58.7177 70.8177C54.1773 68.1393 52.6748 62.1252 55.3627 57.6223C58.1012 53.0351 64.2489 51.5173 68.851 54.2342C73.5379 57.0012 75.0887 63.2112 72.3115 67.8595C69.4839 72.5924 63.1395 74.1579 58.3908 71.3525C53.5573 68.4968 51.9586 62.0913 54.8249 57.297C57.7416 52.4184 64.2826 50.805 69.1782 53.6989C74.1582 56.6431 75.8051 63.2445 72.8498 68.1842C69.8441 73.2083 63.106 74.8696 58.0642 71.8872C52.9376 68.8545 51.2428 62.0575 54.2871 56.9717C57.3818 51.802 64.3169 50.093 69.505 53.1637C74.7782 56.2848 76.5212 63.2777 73.3879 68.509C70.2042 73.8245 63.0723 75.5813 57.7373 72.4219C52.3176 69.2122 50.5267 62.0237 53.749 56.6467C57.0218 51.1855 64.3504 49.381 69.8319 52.629C75.3983 55.9271 77.2371 63.3116 73.9257 68.8342C70.5639 74.4412 63.0383 76.2936 57.4102 72.9571C51.6975 69.5705 49.8102 61.9904 53.2106 56.322C56.6614 50.5693 64.3841 48.6693 70.1585 52.0943C76.0177 55.5694 77.9529 63.3454 74.4635 69.1595C70.9237 75.0579 63.0043 77.0056 57.083 73.4924C51.0772 69.9287 49.0938 61.9572 52.6722 55.9973C56.3011 49.9532 64.4173 47.9575 70.4851 51.5596C76.6375 55.2117 78.6688 63.3792 75.0014 69.4848C71.2835 75.6746 62.9702 77.7179 56.7561 74.0274C50.4572 70.2867 48.3777 61.9236 52.1341 55.6723C55.941 49.337 64.4513 47.2455 70.812 51.0246C77.2575 54.8538 79.3849 63.4127 75.5394 69.8098C71.6435 76.2908 62.9365 78.4299 56.4292 74.5624C49.8372 70.6447 47.6615 61.8901 51.596 55.3473C55.581 48.7206 64.4847 46.5335 71.1389 50.4896C77.8775 54.4961 80.101 63.4463 76.0775 70.1345C72.0036 76.907 62.9028 79.1416 56.1023 75.0971C49.2171 71.0021 46.9457 61.8563 51.0582 55.022C55.2215 48.1038 64.519 45.8212 71.466 49.9543C78.4978 54.1378 80.8175 63.4795 76.6159 70.4592C72.3636 77.5231 62.8693 79.8534 55.7757 75.6318C48.5974 71.3598 46.2299 61.8224 50.5204 54.6968C54.8617 47.4871 64.5528 45.1092 71.7929 49.419C79.1176 53.7796 81.5336 63.5128 77.154 70.7839C72.7237 78.1393 62.8356 80.5651 55.4489 76.1665C47.9777 71.7175 45.5137 61.7886 49.9823 54.3715C54.5017 46.8704 64.5868 44.397 72.1198 48.884C79.7376 53.4216 82.2497 63.5464 77.6918 71.1089C73.0834 78.7558 62.8016 81.2771 55.1217 76.7015C47.3573 72.0755 44.7973 61.7551 49.4439 54.0465C54.1413 46.2539 64.62 43.685 72.4464 48.3491C80.3573 53.0636 82.9656 63.5799 78.2296 71.4339C73.4432 79.3719 62.7675 81.9891 54.7945 77.2365C46.737 72.4334 44.0809 61.7215 48.9056 53.7218C53.781 45.638 64.6537 42.9732 72.773 47.8144C80.9771 52.7059 83.6811 63.6137 78.7674 71.7592C73.803 79.9887 62.7335 82.7014 54.4677 77.7715C46.117 72.7914 43.3647 61.688 48.3675 53.3968C53.421 45.0216 64.6874 42.2612 73.0999 47.2794C81.5971 52.3479 84.3973 63.6473 79.3055 72.0842C74.163 80.6051 62.6998 83.4134 54.1408 78.3065C45.4973 73.1494 42.6486 61.6544 47.8294 53.0718C53.0609 44.4051 64.7212 41.5492 73.4268 46.7444C82.2168 51.99 85.1134 63.6808 79.8436 72.4092C74.5231 81.2216 62.666 84.1254 53.8139 78.8415C44.8772 73.5074 41.9325 61.6209 47.2916 52.7468C52.7011 43.7887 64.7552 40.8372 73.7539 46.2094C82.8371 51.632 85.8298 63.7143 80.382 72.7339C74.8834 81.8377 62.6326 84.8368 53.4873 79.3762C44.2575 73.865 41.2166 61.5871 46.7538 52.4215C52.3416 43.172 64.7892 40.1249 74.0808 45.6741C83.4572 51.2737 86.546 63.7476 80.9201 73.0586C75.2432 82.4539 62.5989 85.5486 53.1604 79.9109C43.6375 74.2225 40.5008 61.5533 46.2157 52.0962C51.9816 42.5555 64.823 39.4127 74.4077 45.1391C84.0772 50.916 87.2621 63.7812 81.4579 73.3825C75.6029 83.0689 62.5648 86.2594 52.8324 80.4447C43.0163 74.5793 39.7832 61.5186 45.6764 51.7701C51.6204 41.9379 64.8556 38.6995 74.7329 44.603C84.6955 50.5569 87.9765 63.8136 81.9943 73.7089C75.9613 83.6868 62.5294 86.9728 52.5041 80.9811C42.3949 74.9387 39.066 61.4864 45.1369 51.4468C51.2589 41.3232 64.8879 37.9892 75.0581 44.0697C85.3136 50.2007 88.691 63.8488 82.5307 74.0353C76.3196 84.3047 62.494 87.6863 52.1758 81.5173C41.7737 75.2978 38.3484 61.4537 44.5974 51.1232C50.8975 40.7081 64.9202 37.2789 75.3832 43.5361C85.9319 49.8441 89.4054 63.8838 83.0671 74.3614C76.678 84.9222 62.4585 88.3994 51.8475 82.0534C41.1523 75.6569 37.6309 61.4216 44.0579 50.7996C50.536 40.0931 64.9525 36.5683 75.7084 43.0026C86.5502 49.4875 90.1198 63.9187 83.6035 74.6875C77.0364 85.5395 62.4231 89.1125 51.5192 82.5895C40.5308 76.016 36.9133 61.3889 43.5187 50.4761C50.1748 39.4781 64.9851 35.8577 76.0367 42.469C87.1717 49.131 90.8374 63.9537 84.143 75.0137C77.3978 86.1571 62.3908 89.8256 51.194 83.1256C39.9125 76.3751 36.1989 61.3565 42.9823 50.1525C49.8165 38.8633 65.0206 35.1471 76.365 41.9354C87.7931 48.7744 91.5546 63.9886 84.6825 75.3398C77.7593 86.7747 62.3584 90.5388 50.8688 83.6617C39.2942 76.7342 35.4844 61.3241 42.4459 49.8289C49.4581 38.2483 65.056 34.4365 76.6933 41.4021C88.4145 48.4181 92.2722 64.0238 85.2217 75.6662C78.1205 87.3925 62.3258 91.2522 50.5434 84.1981C38.6759 77.0936 34.7697 61.292 41.9092 49.5028C49.0995 37.6307 65.0912 33.7234 77.0213 40.866C89.0354 48.059 92.9895 64.0563 85.7609 75.9898C78.4817 88.0076 62.2932 91.9628 50.2179 84.7317C38.0573 77.4501 34.055 61.257 41.3726 49.1766C48.7409 37.0131 65.1263 33.0103 77.3493 40.3299C89.6566 47.7002 93.7067 64.0887 86.3002 76.3134C78.8428 88.6226 62.2606 92.6731 49.8925 85.265C37.4386 77.8061 33.3403 61.2218 40.8359 48.8502C48.3822 36.3955 65.1615 32.2969 77.6774 39.7935C90.2777 47.3408 94.424 64.1208 86.8394 76.6367C79.2037 89.2374 62.2278 93.3834 49.5642 85.7983C36.8172 78.1624 32.6227 61.1865 40.2964 48.5238C48.021 35.7777 65.1938 31.5834 78.0025 39.2571C90.8961 46.9814 95.1384 64.1529 87.3758 76.96C79.5621 89.8519 62.1926 94.0937 49.2359 86.3316C36.1958 78.5187 31.9052 61.1513 39.7571 48.1974C47.6599 35.1598 65.2264 30.87 78.328 38.7207C91.5147 46.622 95.8531 64.1851 87.9124 77.2833C79.9207 90.4666 62.1572 94.804 48.9078 86.8649C35.5746 78.875 31.1882 61.1161 39.2179 47.871C47.2987 34.5419 65.259 30.1566 78.6535 38.1843C92.133 46.2627 96.5679 64.2172 88.4491 77.6094C80.2794 91.0842 62.122 95.5172 48.5798 87.401C34.9537 79.2341 30.4709 61.0837 38.6787 47.5474C46.9375 33.9269 65.2916 29.446 78.9789 37.651C92.7516 45.9064 97.2826 64.2524 88.9855 77.9358C80.6377 91.702 62.0866 96.2306 48.2515 87.9374C34.3323 79.5935 29.7534 61.0515 38.1392 47.2241C46.576 33.3122 65.3239 28.7357 79.3041 37.1177C93.3699 45.5501 97.997 64.2877 89.5219 78.2622C80.9961 92.3199 62.0511 96.944 47.9232 88.4738C33.7108 79.9529 29.0358 61.0194 37.5997 46.9008C46.2145 32.6974 65.3562 28.0257 79.6321 36.5844C93.9911 45.1938 98.7143 64.3229 90.0611 78.5886C81.3572 92.9375 62.0185 97.6574 47.5978 89.0099C33.0922 80.312 28.3211 60.987 37.063 46.5772C45.8559 32.0826 65.3914 27.3151 79.9601 36.0508C94.6122 44.8372 99.4315 64.359 90.6004 78.9147C81.7184 93.5551 61.9862 98.3705 47.2723 89.546C32.4736 80.6711 27.6064 60.9531 36.5263 46.2536C45.4973 31.4676 65.4268 26.6045 80.2882 35.5172C95.2334 44.4807 100.149 64.392 91.1396 79.2409C82.0796 94.1726 61.9527 99.0837 46.9468 90.0821C31.8553 81.0302 26.8917 60.9227 35.9899 45.9272C45.1389 30.8497 65.4631 25.8911 80.6164 34.9808C95.8546 44.1213 100.866 64.4249 91.6791 79.5642C82.4411 94.7874 61.9224 99.794 46.6217 90.6154C31.237 81.3865 26.1773 60.8866 35.4535 45.6008C44.7806 30.2319 65.4966 25.1777 80.9447 34.4444C96.476 43.7619 101.584 64.4579 92.2186 79.8875C82.8023 95.4022 61.8892 100.504 46.2965 91.1487C30.6186 81.7427 25.4628 60.8505 34.9171 45.2744C44.4225 29.614 65.5329 24.4643 81.2731 33.9083C97.0974 43.4031 102.301 64.4884 92.7578 80.2111C83.1635 96.0172 61.8558 101.215 45.9682 91.6823C29.9972 82.099 24.7453 60.8176 34.3776 44.9483C44.061 28.9967 65.566 23.7511 81.5982 33.3722C97.7158 43.044 103.016 64.5216 93.2942 80.5346C83.5218 96.6319 61.8195 101.925 45.6399 92.2159C29.3758 82.4556 24.0277 60.7818 33.8381 44.6222C43.6996 28.3791 65.5964 23.038 81.9234 32.8361C98.3341 42.6849 103.73 64.5549 93.8306 80.8582C83.8802 97.247 61.7861 102.636 45.3116 92.7492C28.7555 82.8161 23.3113 60.7513 33.2995 44.2986C43.3384 27.765 65.6304 22.3283 82.2494 32.3022C98.953 42.328 104.445 64.5904 94.3679 81.1841C84.2394 97.8643 61.7506 103.349 44.9841 93.285C28.1368 83.1744 22.5966 60.7178 32.7622 43.9747C42.9797 27.1488 65.6658 21.6165 82.5797 31.7698C99.5764 41.9726 105.165 64.6245 94.9094 81.5141C84.6028 98.4858 61.7194 104.066 44.6609 93.8251C27.5171 83.5312 21.8805 60.6828 32.2264 43.6494C42.6197 26.5312 65.6998 20.9034 82.9058 31.2331C100.196 41.6129 105.88 64.6572 95.4466 81.8372C84.962 99.1003 61.6868 104.776 44.3335 94.3581C26.8985 83.8895 21.1657 60.6493 31.6892 43.3228C42.2611 25.915 65.7353 20.1917 83.2332 30.6978C100.816 41.2547 106.597 64.6913 95.9853 82.1616C85.3226 99.7164 61.6528 105.486 44.0075 94.8908C26.2785 84.2474 20.4496 60.6155 31.1505 42.9986C41.901 25.2989 65.7693 19.4797 83.5621 30.1623C101.438 40.8961 107.315 64.7223 96.5251 82.4857C85.6844 100.331 61.6199 106.198 43.6826 95.4267C25.6596 84.6057 19.7346 60.5819 30.613 42.6747C41.5421 24.6827 65.8045 18.768 83.8892 29.627C102.058 40.5379 108.031 64.7564 97.0634 82.8102C86.0447 100.947 61.5856 106.91 43.3562 95.9611C25.0393 84.9625 19.0182 60.547 30.074 42.3466C41.1818 24.0637 65.8353 18.0534 84.215 29.0909C102.677 40.1788 108.746 64.7897 97.6004 83.1338C86.4036 101.562 61.5527 107.62 43.0285 96.4944C24.4204 85.3211 18.3032 60.5137 29.5393 42.0231C40.8228 23.4492 65.8733 17.3437 84.5421 28.5581C103.297 39.8231 109.463 64.8235 98.1388 83.4607C86.764 102.181 61.5184 108.334 42.7022 97.0314C23.8001 85.6776 17.5871 60.4785 28.9998 41.6975C40.4625 22.8314 65.9065 16.63 84.8702 28.0215C103.919 39.4637 110.18 64.8562 98.678 83.7838C87.1252 102.795 61.485 109.044 42.3767 97.5644C23.1809 86.0359 16.8715 60.4449 28.4623 41.3736C40.103 22.2155 65.9417 15.9185 85.1973 27.4868C104.539 39.106 110.896 64.8909 99.2164 84.1088C87.4852 103.411 61.4535 109.756 42.0476 98.0994C22.5606 86.3961 16.1551 60.4134 27.9239 41.0489C39.7455 21.6013 65.9731 15.2088 85.5236 26.954C105.159 38.7517 111.612 64.9275 99.7556 84.4385C87.8455 104.031 61.42 110.472 41.7221 98.6391C21.9411 86.7555 15.4395 60.381 27.3867 40.7262C39.386 20.9863 66.0057 14.4982 85.8511 26.4207C105.779 38.3951 112.328 64.9608 100.29 84.7621C88.2042 104.648 61.3846 111.185 41.3947 99.1741C21.3197 87.1101 14.722 60.3494 26.8472 40.4015C39.0246 20.3693 66.0389 13.7856 86.1763 25.8852C106.397 38.0354 113.043 64.9946 100.829 85.0891C88.5634 105.266 61.3506 111.898 41.0658 99.7097C20.6997 87.4681 14.0058 60.3156 26.3091 40.0745C38.6645 19.7528 66.0735 13.0736 86.5029 25.3502C107.017 37.6775 113.759 65.029 101.366 85.4138C88.9231 105.882 61.3157 112.609 40.7389 100.244C20.0791 87.8277 13.2888 60.2834 25.7701 39.752C38.3036 19.138 66.1072 12.3633 86.8314 24.8169C107.638 37.3212 114.477 65.0623 101.906 85.7402C89.2846 106.5 61.2828 113.324 40.414 100.781C19.4602 88.1868 12.5738 60.2507 25.2332 39.429C37.9447 18.5227 66.143 11.6524 87.1592 24.283C108.259 36.9643 115.194 65.0978 102.445 86.0661C89.6458 107.117 61.2491 114.035 40.0883 101.316C18.8404 88.5448 11.858 60.2169 24.6954 39.102C37.5849 17.9066 66.1778 10.9404 87.4861 23.748C108.879 36.6075 115.91 65.1322 102.982 86.3908C90.0064 107.734 61.2165 114.747 39.7608 101.851C18.2218 88.9022 11.1438 60.1825 24.1587 38.7773C37.2263 17.2895 66.211 10.2267 87.8112 23.2125C109.499 36.249 116.627 65.166 103.52 86.7149C90.3656 108.348 61.1816 115.457 39.4339 102.384C17.6009 89.2602 10.4257 60.1487 23.62 38.4532C36.8654 16.6731 66.245 9.51642 88.1401 22.6778C110.117 35.891 117.341 65.1978 104.059 87.0399C90.7257 108.967 61.1476 116.171 39.1079 102.92C16.9809 89.619 9.71129 60.1157 23.0819 38.1299C36.5053 16.0575 66.2796 8.80414 88.4667 22.1436C110.739 35.5339 118.059 65.2302 104.598 87.3683C91.0863 109.585 61.1141 116.886 38.7796 103.457C16.3617 89.9784 8.99459 60.0833 22.5444 37.8043C36.1459 15.4425 66.3148 8.09524 88.7939 21.61C111.361 35.1773 118.775 65.266 105.138 87.6916C91.4475 110.199 61.0841 117.595 38.4547 103.992C15.7429 90.3355 8.27845 60.0486 22.0075 37.4793C35.7869 14.8254 66.3476 7.38126 89.1216 21.0742C111.981 34.8185 119.491 65.2996 105.673 88.0155C91.8064 110.816 61.0489 118.308 38.1276 104.527C15.1217 90.6932 7.56289 60.0145 21.4682 37.1549C35.4258 14.2087 66.3783 6.66785 89.4471 20.5389C112.598 34.4602 120.205 65.3337 106.211 88.3399C92.1659 111.433 61.0143 119.019 37.7981 105.06C14.5011 91.0515 6.84505 59.981 20.9296 36.8282C35.0651 13.5925 66.4123 5.95782 89.7731 20.0042C113.219 34.1025 120.922 65.3684 106.749 88.6677C92.5259 112.049 60.9803 119.733 37.4721 105.597C13.8811 91.4103 6.13062 59.9508 20.3915 36.5049C34.7051 12.9769 66.4469 5.24553 90.1025 19.4701C113.84 33.7454 121.64 65.4036 107.289 88.9905C92.8865 112.665 60.9469 120.444 37.1466 106.131C13.2616 91.7669 5.41392 59.9156 19.8542 36.1793C34.3456 12.3591 66.4795 4.53381 90.43 18.934C114.46 33.386 122.355 65.434 107.826 89.314C93.248 113.281 60.9143 121.154 36.822 106.666C12.6433 92.1243 4.70091 59.8812 19.3176 35.8518C33.987 11.7421 66.5155 3.82011 90.7552 18.3984C115.08 33.0275 123.072 65.4679 108.364 89.641C93.6072 113.896 60.8794 121.867 36.4923 107.199C12.0224 92.4823 3.98279 59.8474 18.7786 35.5277C33.6261 11.1256 66.5492 3.10698 91.0809 17.8634C115.7 32.6695 123.786 65.5023 108.902 89.9657C93.967 114.514 60.8451 122.578 36.166 107.735C11.4021 92.8408 3.26524 59.8141 18.2403 35.2041C33.2657 10.51 66.5835 2.39724 91.41 17.329C116.319 32.3121 124.504 65.5372 109.441 90.291C94.3273 115.132 60.8114 123.292 35.8402 108.271C10.7824 93.1999 2.55109 59.7814 17.7024 34.881C32.906 9.89469 66.6184 1.68523 91.7369 16.7951C116.941 31.9552 125.222 65.5699 109.98 90.6168C94.6882 115.746 60.7782 124.004 35.5122 108.806C10.1632 93.5568 1.83467 59.7465 17.1652 34.5529C32.5468 9.27712 66.6538 0.973794 92.0615 16.259C117.56 31.5961 125.935 65.6003 110.515 90.9404C95.0468 116.362 60.7428 124.714 35.1848 109.341C9.54204 93.9142 1.11882 59.7121 16.6257 34.2282C32.1853 8.6601 66.6842 0.260099 92.3896 15.7235C118.179 31.2373 126.651 65.6342 111.054 91.2646C95.4061 116.978 60.7096 125.427 34.8596 109.874C8.92003 94.2727 0.399569 59.6788 16.0859 33.9046C31.8233 8.04422 66.7171 -0.449649 92.7145 15.1891C118.797 30.8802 127.364 65.6691 111.59 91.5927C95.765 117.595 60.6727 126.139 34.5279 110.41C8.3 94.6312 -0.317699 59.6456 15.5478 33.5782C31.4632 7.42861 66.7516 -1.16222 93.0411 14.6549C119.418 30.5228 128.082 65.7015 112.129 91.9154C96.1256 118.211 60.6421 126.85 34.2024 110.944C7.68054 94.9878 -1.03156 59.6103 15.0103 33.2527C31.1037 6.81076 66.784 -1.87676 93.3711 14.1185C120.038 30.1634 128.801 65.7345 112.669 92.2387C96.4868 118.828 60.6092 127.563 33.8775 111.479C7.06165 95.3449 -1.7477 59.5757 14.4733 32.9277C30.7448 6.19346 66.8168 -2.58791 93.696 13.5827C120.657 29.8046 129.514 65.7681 113.204 92.5626C96.8429 119.442 60.5741 128.273 33.5504 112.014C6.44049 95.7026 -2.4661 59.5415 13.9341 32.6004C30.3836 5.57673 66.8503 -3.30133 94.0214 13.0474C121.276 29.4466 130.231 65.8022 113.742 92.8898C97.2023 120.059 60.5395 128.986 33.2209 112.547C5.82018 96.0609 -3.1811 59.5108 13.3954 32.2766C30.023 4.96056 66.8843 -4.01136 94.3474 12.5127C121.896 29.0889 130.945 65.8368 114.279 93.2148C97.5638 120.677 60.5069 129.697 32.8963 113.084C5.20158 96.4197 -3.89695 59.4778 12.8588 31.9533C29.6644 4.34524 66.9203 -4.72364 94.6783 11.9786C122.518 28.7315 131.664 65.8721 114.821 93.5404C97.9244 121.296 60.4734 130.412 32.5709 113.621C4.58212 96.7791 -4.61081 59.4454 12.3215 31.6305C29.3055 3.7302 66.9529 -5.43536 95.0029 11.4453C123.138 28.3749 132.38 65.9053 115.356 93.8668C98.2831 121.91 60.438 131.122 32.2406 114.156C3.96067 97.1365 -5.3295 59.411 11.782 31.303C28.944 3.11319 66.9861 -6.14624 95.3281 10.9097C123.758 28.0169 133.094 65.9391 115.894 94.191C98.6423 122.527 60.4031 131.835 31.9137 114.689C3.33923 97.4945 -6.04478 59.3772 11.2431 30.9788C28.5831 2.49589 67.0198 -6.85937 95.6567 10.3747C124.376 27.659 133.811 65.9735 116.432 94.5157C99.002 123.145 60.3688 132.548 31.5874 115.225C2.72091 97.853 -6.76233 59.344 10.7047 30.6552C28.2227 1.88198 67.0541 -7.56912 95.983 9.84029C124.997 27.3016 134.525 66.0085 116.971 94.8438" stroke="black"/>
</g>
<path opacity="0.236" fill-rule="evenodd" clip-rule="evenodd" d="M126.859 62.4962C126.859 79.0342 120.251 94.8948 108.489 106.589C96.7274 118.283 80.7748 124.853 64.1408 124.853C47.5069 124.853 31.5542 118.283 19.7922 106.589C8.03024 94.8948 1.42242 79.0342 1.42242 62.4962C1.42242 45.9582 8.03024 30.0975 19.7922 18.4034C31.5542 6.70923 47.5069 0.139526 64.1408 0.139526C80.7748 0.139526 96.7274 6.70923 108.489 18.4034C120.251 30.0975 126.859 45.9582 126.859 62.4962V62.4962Z" fill="url(#paint2_linear)" stroke="black"/>
<path opacity="0.51" d="M89.635 62.5018C89.635 69.2983 86.9194 75.8164 82.0857 80.6223C77.252 85.4281 70.696 88.128 63.8601 88.128C57.0242 88.128 50.4683 85.4281 45.6345 80.6223C40.8008 75.8164 38.0853 69.2983 38.0853 62.5018C38.0853 59.1366 38.752 55.8042 40.0473 52.6951C41.3426 49.586 43.2411 46.761 45.6345 44.3814C48.028 42.0018 50.8694 40.1142 53.9965 38.8263C57.1237 37.5385 60.4753 36.8756 63.8601 36.8756C67.2449 36.8756 70.5966 37.5385 73.7237 38.8263C76.8509 40.1142 79.6923 42.0018 82.0857 44.3814C84.4791 46.761 86.3777 49.586 87.673 52.6951C88.9683 55.8042 89.635 59.1366 89.635 62.5018V62.5018Z" fill="black"/>
<path d="M85.0507 62.5018C85.0217 68.071 82.7762 73.4022 78.8051 77.3301C74.834 81.2579 69.4603 83.4629 63.8587 83.4629C58.2572 83.4629 52.8834 81.2579 48.9123 77.3301C44.9412 73.4022 42.6957 68.071 42.6667 62.5018C42.6523 59.7257 43.1898 56.9742 44.2483 54.4052C45.3068 51.8363 46.8655 49.5007 48.8348 47.5326C50.8041 45.5646 53.1452 44.0028 55.7235 42.9371C58.3018 41.8714 61.0665 41.3228 63.8587 41.3228C66.651 41.3228 69.4157 41.8714 71.994 42.9371C74.5723 44.0028 76.9133 45.5646 78.8826 47.5326C80.8519 49.5007 82.4106 51.8363 83.4692 54.4052C84.5277 56.9742 85.0652 59.7257 85.0507 62.5018V62.5018Z" fill="url(#paint3_radial)"/>
<path d="M65.0069 62.5046C65.0069 62.8067 64.8862 63.0964 64.6713 63.3101C64.4565 63.5237 64.1651 63.6437 63.8612 63.6437C63.5574 63.6437 63.266 63.5237 63.0511 63.3101C62.8363 63.0964 62.7156 62.8067 62.7156 62.5046C62.7156 62.2025 62.8363 61.9128 63.0511 61.6992C63.266 61.4856 63.5574 61.3656 63.8612 61.3656C64.1651 61.3656 64.4565 61.4856 64.6713 61.6992C64.8862 61.9128 65.0069 62.2025 65.0069 62.5046Z" fill="black"/>
<path d="M65.0522 62.6174C65.0522 62.9195 64.9315 63.2092 64.7167 63.4228C64.5018 63.6364 64.2104 63.7564 63.9066 63.7564C63.6027 63.7564 63.3113 63.6364 63.0965 63.4228C62.8816 63.2092 62.7609 62.9195 62.7609 62.6174C62.7609 62.3153 62.8816 62.0256 63.0965 61.812C63.3113 61.5983 63.6027 61.4783 63.9066 61.4783C64.2104 61.4783 64.5018 61.5983 64.7167 61.812C64.9315 62.0256 65.0522 62.3153 65.0522 62.6174V62.6174Z" fill="black" stroke="white" stroke-width="0.04849"/>
<defs>
<radialGradient id="paint0_radial" cx="0" cy="0" r="1" gradientUnits="userSpaceOnUse" gradientTransform="translate(63.8588 62.5018) scale(62.8587 62.4962)">
<stop stop-color="#242427"/>
<stop offset="1"/>
</radialGradient>
<linearGradient id="paint1_linear" x1="1.79665" y1="-79.3605" x2="125.926" y2="-79.3605" gradientUnits="userSpaceOnUse">
<stop stop-color="#F2F5F5" stop-opacity="0.32"/>
<stop offset="1" stop-color="white"/>
</linearGradient>
<linearGradient id="paint2_linear" x1="21.3273" y1="16.9404" x2="69.438" y2="66.4753" gradientUnits="userSpaceOnUse">
<stop stop-color="white" stop-opacity="0.531"/>
<stop offset="0.5" stop-color="#7F7F7F" stop-opacity="0.765"/>
<stop offset="1"/>
</linearGradient>
<radialGradient id="paint3_radial" cx="0" cy="0" r="1" gradientUnits="userSpaceOnUse" gradientTransform="translate(63.8601 62.504) scale(21.1925 21.0702)">
<stop stop-color="white"/>
<stop offset="0.88" stop-color="#EDEDED" stop-opacity="0.979"/>
<stop offset="1" stop-color="white"/>
</radialGradient>
</defs>
</svg>
